<svg width="946" height="627" viewBox="0 0 946 627" fill="none" xmlns="http://www.w3.org/2000/svg">
<g opacity="0.24">
<path d="M252.156 94.107C375.456 72.1156 474.123 112.555 512.467 166.856C550.811 221.157 616.179 186.415 670.661 257.878C725.143 329.342 726.946 505.724 469.113 518.526C211.281 531.329 80.4584 494.051 53.1394 415.674C25.8204 337.297 41.8374 131.61 252.156 94.107Z" fill="#FFF1E2"/>
<path d="M165.936 130.779C165.936 130.779 197.361 211.414 326.799 223.466C456.237 235.518 500.405 192.57 545.545 205.096" stroke="#FF9A8D" stroke-linecap="round" stroke-linejoin="round"/>
<path d="M130.248 133.395L150.75 103.947L179.289 95.3321L95.6157 63.1143L130.248 133.395Z" fill="#FF9A8D"/>
<path d="M95.6157 63.1143L148.168 107.649L154.081 121.858L156.663 102.165L95.6157 63.1143Z" fill="#D66F67"/>
<path d="M142.352 116.013L154.081 121.858L148.168 107.649L142.352 116.013Z" fill="#EF857D"/>
<path d="M875.609 531.665C875.609 531.665 844.183 612.3 714.746 624.352C585.308 636.404 541.14 593.456 496 605.981" stroke="#D3DFFF" stroke-linecap="round" stroke-linejoin="round"/>
<path d="M911.297 534.281L890.795 504.833L862.256 496.218L945.929 464L911.297 534.281Z" fill="#D3DFFF"/>
<path d="M945.929 464L893.377 508.534L887.464 522.744L884.882 503.051L945.929 464Z" fill="#1F3C88"/>
<path d="M899.193 516.899L887.464 522.744L893.377 508.535L899.193 516.899Z" fill="#708CD5"/>
<path d="M80.4066 218.714C102.608 207.581 111.605 180.512 100.502 158.253C89.3987 135.994 62.4002 126.973 40.1989 138.105C17.9977 149.237 9.00078 176.306 20.1038 198.566C31.2068 220.825 58.2053 229.846 80.4066 218.714Z" stroke="#FF9A8D" stroke-linecap="round" stroke-linejoin="round"/>
<path d="M557.991 323.303C570.202 318.294 576.051 304.309 571.055 292.066C566.06 279.823 552.111 273.958 539.9 278.967C527.689 283.976 521.84 297.961 526.835 310.204C531.831 322.447 545.78 328.311 557.991 323.303Z" stroke="#FF9A8D" stroke-linecap="round" stroke-linejoin="round"/>
<path d="M240.863 61.7225C253.489 61.7225 263.725 51.4603 263.725 38.8012C263.725 26.1421 253.489 15.8799 240.863 15.8799C228.237 15.8799 218.001 26.1421 218.001 38.8012C218.001 51.4603 228.237 61.7225 240.863 61.7225Z" fill="#8CD3E8"/>
<path d="M248.331 47.8474C247.165 49.0999 245.568 49.921 243.528 50.2968V53.7064H238.448V50.4081C235.574 50.0602 233.298 49.2112 231.646 47.8335L233.187 44.3681C233.589 44.7439 234.145 45.1336 234.88 45.5372C235.602 45.9407 236.435 46.2887 237.379 46.567C238.323 46.8453 239.267 46.9845 240.238 46.9845C241.418 46.9845 242.417 46.7201 243.236 46.1773C244.055 45.6485 244.472 44.7995 244.472 43.6444C244.472 43.0043 244.236 42.4615 243.75 42.0161C243.278 41.5708 242.695 41.209 242.015 40.9306C241.335 40.6523 240.446 40.36 239.35 40.0399C237.865 39.6085 236.588 39.0936 235.505 38.4951C234.422 37.8967 233.534 37.0895 232.854 36.0597C232.173 35.0437 231.826 33.7634 231.826 32.2325C231.826 31.0913 232.09 30.0475 232.604 29.0872C233.117 28.127 233.881 27.3337 234.866 26.6796C235.852 26.0255 237.046 25.5662 238.448 25.3296V21.1685H243.528V25.3436C244.735 25.5662 245.79 25.9281 246.707 26.3873C247.609 26.8605 248.247 27.3337 248.622 27.8069L246.915 31.1052C246.748 30.8825 246.373 30.5764 245.804 30.2145C245.235 29.8527 244.555 29.5326 243.778 29.2542C243 28.9759 242.223 28.8367 241.432 28.8367C240.224 28.8367 239.211 29.1012 238.392 29.63C237.573 30.1588 237.157 30.9243 237.157 31.9263C237.157 32.9979 237.615 33.819 238.545 34.3757C239.475 34.9463 240.627 35.3777 242.029 35.6978C244.402 36.2545 246.346 37.173 247.831 38.4395C249.316 39.7059 250.066 41.2925 250.066 43.1991C250.066 45.1057 249.483 46.5948 248.331 47.8335V47.8474Z" fill="white"/>
<path d="M756.234 108.409V95.1741L746.295 93.1701C745.948 92.0845 745.518 91.0408 745.046 90.0109L751.376 81.8695L742.756 71.8492L733.275 77.2072C731.721 76.3305 730.069 75.6068 728.348 75.0362L726.155 64H712.954L710.733 75.0223C709.095 75.565 707.513 76.247 706.014 77.0681L695.478 71.1116L686.858 81.1318L693.924 90.2197C693.632 90.8598 693.368 91.5279 693.132 92.1959L682 94.4504V107.686L692.591 109.801C692.938 110.956 693.354 112.083 693.826 113.169L686.428 122.688L695.048 132.708L706.028 126.501C707.027 127.058 708.082 127.531 709.151 127.949L711.649 140.544H724.85L727.196 128.853C728.653 128.436 730.069 127.907 731.415 127.267L742.312 133.432L750.932 123.412L744.338 114.936C745.102 113.489 745.74 111.972 746.254 110.385L756.206 108.409H756.234ZM719.533 116.147C711.621 116.147 705.195 109.717 705.195 101.771C705.195 93.8242 711.608 87.3945 719.533 87.3945C727.459 87.3945 733.872 93.8242 733.872 101.771C733.872 109.717 727.459 116.147 719.533 116.147Z" fill="#FF9A8D"/>
<path d="M734.476 117.667C742.954 109.167 742.954 95.3851 734.476 86.8848C725.998 78.3846 712.252 78.3846 703.774 86.8848C695.296 95.3851 695.296 109.167 703.774 117.667C712.252 126.167 725.998 126.167 734.476 117.667Z" stroke="white" stroke-linecap="round" stroke-linejoin="round"/>
<path d="M322.287 31.8425H316.138V25.6773C316.138 25.2876 315.833 24.9814 315.444 24.9814C315.055 24.9814 314.75 25.2876 314.75 25.6773V31.8425H308.601C308.212 31.8425 307.907 32.1487 307.907 32.5384C307.907 32.9281 308.212 33.2342 308.601 33.2342H314.75V39.3995C314.75 39.7891 315.055 40.0953 315.444 40.0953C315.833 40.0953 316.138 39.7891 316.138 39.3995V33.2342H322.287C322.676 33.2342 322.981 32.9281 322.981 32.5384C322.981 32.1487 322.676 31.8425 322.287 31.8425Z" fill="#FF8968"/>
<path d="M15.1626 269.016H9.01349V262.851C9.01349 262.461 8.70811 262.155 8.31945 262.155C7.93079 262.155 7.62541 262.461 7.62541 262.851V269.016H1.47626C1.0876 269.016 0.782227 269.323 0.782227 269.712C0.782227 270.102 1.0876 270.408 1.47626 270.408H7.62541V276.573C7.62541 276.963 7.93079 277.269 8.31945 277.269C8.70811 277.269 9.01349 276.963 9.01349 276.573V270.408H15.1626C15.5513 270.408 15.8567 270.102 15.8567 269.712C15.8567 269.323 15.5513 269.016 15.1626 269.016Z" fill="#FF8968"/>
<path d="M813.38 89.8611H807.231V83.6959C807.231 83.3062 806.926 83 806.537 83C806.149 83 805.843 83.3062 805.843 83.6959V89.8611H799.694C799.305 89.8611 799 90.1673 799 90.557C799 90.9466 799.305 91.2528 799.694 91.2528H805.843V97.418C805.843 97.8077 806.149 98.1139 806.537 98.1139C806.926 98.1139 807.231 97.8077 807.231 97.418V91.2528H813.38C813.769 91.2528 814.074 90.9466 814.074 90.557C814.074 90.1673 813.769 89.8611 813.38 89.8611Z" fill="#1F3C88"/>
<path d="M515.701 252.567H509.552V246.401C509.552 246.012 509.247 245.706 508.858 245.706C508.469 245.706 508.164 246.012 508.164 246.401V252.567H502.015C501.626 252.567 501.321 252.873 501.321 253.262C501.321 253.652 501.626 253.958 502.015 253.958H508.164V260.124C508.164 260.513 508.469 260.819 508.858 260.819C509.247 260.819 509.552 260.513 509.552 260.124V253.958H515.701C516.09 253.958 516.395 253.652 516.395 253.262C516.395 252.873 516.09 252.567 515.701 252.567Z" fill="#FF8968"/>
<path d="M228.801 138.461C231.346 138.461 233.409 136.392 233.409 133.841C233.409 131.289 231.346 129.22 228.801 129.22C226.256 129.22 224.192 131.289 224.192 133.841C224.192 136.392 226.256 138.461 228.801 138.461Z" fill="#FF9A8D"/>
<path d="M160.799 355.622C163.344 355.622 165.408 353.554 165.408 351.002C165.408 348.45 163.344 346.381 160.799 346.381C158.254 346.381 156.191 348.45 156.191 351.002C156.191 353.554 158.254 355.622 160.799 355.622Z" fill="#FF9A8D"/>
<path d="M79.9721 31.5505H162.368C162.368 31.5505 157.01 17.536 143.629 11.8718C130.248 6.20757 119.837 16.3392 119.837 16.3392C119.837 16.3392 110.607 -1.66946 92.4647 0.125834C74.3226 1.92113 68.3817 15.8381 68.3817 15.8381C68.3817 15.8381 47.5606 11.8718 45.4785 31.5644H79.986L79.9721 31.5505Z" fill="#FFF1E2"/>
<path d="M612.494 173.55H694.889C694.889 173.55 689.531 159.536 676.15 153.872C662.769 148.208 652.359 158.339 652.359 158.339C652.359 158.339 643.128 140.331 624.986 142.126C606.844 143.921 600.903 157.838 600.903 157.838C600.903 157.838 580.082 153.872 578 173.564H612.507L612.494 173.55Z" fill="#EDF2FF"/>
<path d="M482.623 64.1024H550.153C550.153 64.1024 545.767 52.6209 534.801 47.9726C523.835 43.3243 515.299 51.6328 515.299 51.6328C515.299 51.6328 507.734 36.8808 492.867 38.342C478.001 39.8033 473.129 51.2153 473.129 51.2153C473.129 51.2153 456.07 47.9726 454.362 64.1024H482.637H482.623Z" fill="#FBFCFF"/>
</g>
</svg>
