<svg width="188" height="172" viewBox="0 0 188 172" fill="none" xmlns="http://www.w3.org/2000/svg">
<g clip-path="url(#clip0_2008_856)">
<path d="M67.9438 26.5589C96.2774 21.5027 118.951 30.8003 127.762 43.2848C136.573 55.7694 151.594 47.7818 164.114 64.2122C176.634 80.6426 177.048 121.195 117.799 124.139C58.551 127.082 28.4886 118.512 22.2108 100.492C15.9331 82.4718 19.6137 35.1814 67.9438 26.5589Z" fill="#FFF1E2"/>
<path d="M59.4077 37.5298C59.4077 37.5298 68.426 60.6697 105.571 64.1283C142.716 67.587 155.391 55.2622 168.345 58.8566" stroke="#FF9A8D" stroke-linecap="round" stroke-linejoin="round"/>
<path d="M49.1665 38.2804L55.0499 29.8296L63.2397 27.3574L39.228 18.1118L49.1665 38.2804Z" fill="#FF9A8D"/>
<path d="M39.228 18.1118L54.309 30.8919L56.0059 34.9696L56.7468 29.3184L39.228 18.1118Z" fill="#D66F67"/>
<path d="M52.6401 33.2924L56.0061 34.9697L54.3092 30.8921L52.6401 33.2924Z" fill="#EF857D"/>
<path d="M34.8634 62.7644C41.2345 59.5698 43.8164 51.8018 40.6301 45.414C37.4439 39.0262 29.6961 36.4376 23.325 39.6322C16.9539 42.8268 14.372 50.5948 17.5583 56.9826C20.7445 63.3704 28.4923 65.959 34.8634 62.7644Z" stroke="#FF9A8D" stroke-linecap="round" stroke-linejoin="round"/>
<path d="M171.916 92.7787C175.421 91.3413 177.099 87.328 175.665 83.8146C174.232 80.3012 170.229 78.6183 166.725 80.0556C163.221 81.493 161.542 85.5064 162.976 89.0197C164.409 92.5331 168.412 94.216 171.916 92.7787Z" stroke="#FF9A8D" stroke-linecap="round" stroke-linejoin="round"/>
<path d="M80.9097 17.7126C84.533 17.7126 87.4703 14.7677 87.4703 11.1349C87.4703 7.50209 84.533 4.55713 80.9097 4.55713C77.2864 4.55713 74.3491 7.50209 74.3491 11.1349C74.3491 14.7677 77.2864 17.7126 80.9097 17.7126Z" fill="#8CD3E8"/>
<path d="M83.0526 13.7308C82.718 14.0902 82.26 14.3259 81.6744 14.4337V15.4122H80.2165V14.4656C79.3919 14.3658 78.7387 14.1222 78.2646 13.7268L78.7068 12.7323C78.8223 12.8402 78.9817 12.952 79.1928 13.0678C79.3999 13.1836 79.6389 13.2835 79.9098 13.3634C80.1806 13.4432 80.4515 13.4832 80.7303 13.4832C81.0689 13.4832 81.3557 13.4073 81.5908 13.2515C81.8258 13.0998 81.9453 12.8561 81.9453 12.5247C81.9453 12.3409 81.8776 12.1852 81.7381 12.0574C81.6027 11.9296 81.4354 11.8257 81.2402 11.7459C81.045 11.666 80.7901 11.5821 80.4754 11.4903C80.0492 11.3665 79.6827 11.2187 79.372 11.047C79.0613 10.8752 78.8064 10.6436 78.6112 10.348C78.416 10.0565 78.3164 9.68908 78.3164 9.24976C78.3164 8.92227 78.3921 8.62274 78.5395 8.34717C78.6869 8.0716 78.906 7.84395 79.1888 7.65624C79.4716 7.46854 79.8142 7.33674 80.2165 7.26885V6.07471H81.6744V7.27284C82.021 7.33674 82.3237 7.44058 82.5866 7.57237C82.8455 7.70816 83.0287 7.84395 83.1363 7.97974L82.6463 8.92626C82.5985 8.86236 82.491 8.7745 82.3277 8.67066C82.1644 8.56682 81.9692 8.47497 81.7461 8.39509C81.523 8.31522 81.3 8.27528 81.0729 8.27528C80.7264 8.27528 80.4356 8.35116 80.2006 8.50292C79.9655 8.65469 79.846 8.87435 79.846 9.1619C79.846 9.46942 79.9775 9.70505 80.2444 9.8648C80.5113 10.0285 80.8419 10.1524 81.2442 10.2442C81.9254 10.404 82.483 10.6676 82.9092 11.031C83.3355 11.3944 83.5506 11.8497 83.5506 12.3969C83.5506 12.944 83.3833 13.3713 83.0526 13.7268V13.7308Z" fill="white"/>
<path d="M38.9215 90.8706H46.0915V94.2493C46.0915 95.2638 45.2709 96.0905 44.2552 96.0905H40.7538C39.742 96.0905 38.9175 95.2678 38.9175 94.2493V90.8706H38.9215Z" fill="#D86A7D"/>
<path d="M52.6957 79.2888C52.6957 81.9767 51.656 84.4208 49.9631 86.246C49.5369 86.7053 49.0708 87.1206 48.5689 87.4961C48.5649 90.0201 46.5215 92.0689 44.004 92.0689H40.8452C38.3237 92.0689 36.2763 90.0161 36.2763 87.4881V87.3643C35.8381 87.0248 35.4318 86.6534 35.0534 86.246C33.3605 84.4248 32.3208 81.9767 32.3208 79.2888C32.3208 73.6456 36.8817 69.0728 42.5102 69.0728C48.1387 69.0728 52.6957 73.6456 52.6957 79.2888Z" fill="#8CD3E8"/>
<path d="M49.9629 86.246C49.5367 86.7052 49.0707 87.1206 48.5688 87.496C48.5648 90.0201 46.5213 92.0689 44.0038 92.0689H40.845C38.3236 92.0689 36.2761 90.0161 36.2761 87.488V87.3642C35.8379 87.0247 35.4316 86.6533 35.0532 86.246C35.9614 82.9751 38.9569 80.5708 42.5101 80.5708C46.0632 80.5708 49.0547 82.9751 49.9629 86.246Z" fill="#71BBCC"/>
<path d="M46.6053 78.9974H46.0397C46.0397 80.8545 44.6057 82.3762 42.7932 82.5239V78.9974C42.7932 78.8417 42.6658 78.7139 42.5104 78.7139C42.3551 78.7139 42.2276 78.8417 42.2276 78.9974V82.5239C40.4112 82.3802 38.9812 80.8545 38.9812 78.9974H38.4155C38.4155 81.166 40.1045 82.9473 42.2316 83.091V91.494C42.2316 91.6497 42.3591 91.7775 42.5144 91.7775C42.6698 91.7775 42.7972 91.6497 42.7972 91.494V83.091C44.9243 82.9433 46.6133 81.166 46.6133 78.9974H46.6053Z" fill="white"/>
<path d="M44.207 70.71C44.207 70.71 47.6287 71.1852 49.5407 74.6478" stroke="white" stroke-width="3" stroke-linecap="round" stroke-linejoin="round"/>
<path d="M50.2656 76.2856L50.4568 76.7569" stroke="white" stroke-width="3" stroke-linecap="round" stroke-linejoin="round"/>
<path d="M168.344 38.9873V35.1892L165.492 34.6141C165.393 34.3026 165.269 34.0031 165.134 33.7075L166.95 31.3712L164.477 28.4957L161.756 30.0333C161.31 29.7817 160.836 29.574 160.342 29.4102L159.713 26.2432H155.924L155.287 29.4062C154.817 29.562 154.363 29.7577 153.933 29.9933L150.909 28.284L148.436 31.1595L150.463 33.7674C150.38 33.9512 150.304 34.1429 150.236 34.3346L147.042 34.9815V38.7796L150.081 39.3867C150.18 39.7182 150.3 40.0417 150.435 40.3532L148.312 43.0849L150.786 45.9604L153.937 44.1792C154.223 44.339 154.526 44.4748 154.833 44.5946L155.55 48.2089H159.338L160.011 44.8542C160.43 44.7344 160.836 44.5826 161.222 44.3989L164.349 46.1681L166.823 43.2926L164.931 40.8604C165.15 40.445 165.333 40.0097 165.48 39.5544L168.337 38.9873H168.344ZM157.812 41.2079C155.542 41.2079 153.698 39.3627 153.698 37.0823C153.698 34.8018 155.538 32.9567 157.812 32.9567C160.087 32.9567 161.927 34.8018 161.927 37.0823C161.927 39.3627 160.087 41.2079 157.812 41.2079Z" fill="#FF9A8D"/>
<path d="M162.101 41.6438C164.533 39.2045 164.533 35.2496 162.101 32.8103C159.668 30.371 155.723 30.3709 153.29 32.8103C150.857 35.2496 150.857 39.2045 153.29 41.6438C155.723 44.0831 159.668 44.0831 162.101 41.6438Z" stroke="white" stroke-linecap="round" stroke-linejoin="round"/>
<path d="M104.276 9.13788H102.512V7.36863C102.512 7.25681 102.424 7.16895 102.312 7.16895C102.201 7.16895 102.113 7.25681 102.113 7.36863V9.13788H100.349C100.237 9.13788 100.149 9.22574 100.149 9.33757C100.149 9.44939 100.237 9.53725 100.349 9.53725H102.113V11.3065C102.113 11.4183 102.201 11.5062 102.312 11.5062C102.424 11.5062 102.512 11.4183 102.512 11.3065V9.53725H104.276C104.388 9.53725 104.475 9.44939 104.475 9.33757C104.475 9.22574 104.388 9.13788 104.276 9.13788Z" fill="#FF8968"/>
<path d="M16.1404 77.1999H14.3758V75.4306C14.3758 75.3188 14.2882 75.231 14.1766 75.231C14.0651 75.231 13.9775 75.3188 13.9775 75.4306V77.1999H12.2128C12.1013 77.1999 12.0137 77.2878 12.0137 77.3996C12.0137 77.5114 12.1013 77.5993 12.2128 77.5993H13.9775V79.3685C13.9775 79.4803 14.0651 79.5682 14.1766 79.5682C14.2882 79.5682 14.3758 79.4803 14.3758 79.3685V77.5993H16.1404C16.252 77.5993 16.3396 77.5114 16.3396 77.3996C16.3396 77.2878 16.252 77.1999 16.1404 77.1999Z" fill="#FF8968"/>
<path d="M159.78 72.4792H158.015V70.7099C158.015 70.5981 157.928 70.5103 157.816 70.5103C157.705 70.5103 157.617 70.5981 157.617 70.7099V72.4792H155.852C155.741 72.4792 155.653 72.567 155.653 72.6789C155.653 72.7907 155.741 72.8786 155.852 72.8786H157.617V74.6478C157.617 74.7596 157.705 74.8475 157.816 74.8475C157.928 74.8475 158.015 74.7596 158.015 74.6478V72.8786H159.78C159.892 72.8786 159.979 72.7907 159.979 72.6789C159.979 72.567 159.892 72.4792 159.78 72.4792Z" fill="#FF8968"/>
<path d="M77.4484 39.7344C78.1788 39.7344 78.7709 39.1407 78.7709 38.4085C78.7709 37.6762 78.1788 37.0825 77.4484 37.0825C76.7181 37.0825 76.126 37.6762 76.126 38.4085C76.126 39.1407 76.7181 39.7344 77.4484 39.7344Z" fill="#FF9A8D"/>
<path d="M57.9338 102.053C58.6642 102.053 59.2563 101.46 59.2563 100.727C59.2563 99.995 58.6642 99.4014 57.9338 99.4014C57.2034 99.4014 56.6113 99.995 56.6113 100.727C56.6113 101.46 57.2034 102.053 57.9338 102.053Z" fill="#FF9A8D"/>
<path d="M34.7385 9.05406H58.3837C58.3837 9.05406 56.8461 5.03232 53.0062 3.40686C49.1662 1.78139 46.1787 4.68886 46.1787 4.68886C46.1787 4.68886 43.5298 -0.479086 38.3235 0.0361108C33.1173 0.551308 31.4124 4.54508 31.4124 4.54508C31.4124 4.54508 25.4373 3.40686 24.8398 9.05805H34.7425L34.7385 9.05406Z" fill="#FFF1E2"/>
<path d="M150.288 18.3953H169.667C169.667 18.3953 168.408 15.1005 165.261 13.7665C162.114 12.4326 159.665 14.8169 159.665 14.8169C159.665 14.8169 157.494 10.5835 153.228 11.0028C148.961 11.4222 147.563 14.6971 147.563 14.6971C147.563 14.6971 142.668 13.7665 142.178 18.3953H150.292H150.288Z" fill="#FFF1E2"/>
<path d="M67.0953 109.126L53.7471 118.376L47.9194 149.52H52.5322L59.9332 124.822L67.9438 122.51L67.0953 109.126Z" fill="#D86A7D"/>
<path d="M118.652 109.126L132 118.376L137.824 149.52H133.211L125.81 124.822L117.8 122.51L118.652 109.126Z" fill="#D86A7D"/>
<path d="M95.4849 122.705H90.7646H70.561L73.1781 137.654H90.7646H95.4849H113.071L115.688 122.705H95.4849Z" fill="#313280"/>
<path d="M76.3848 126.527H76.3809C75.4613 126.527 74.7158 127.275 74.7158 128.197V134.271C74.7158 135.193 75.4613 135.941 76.3809 135.941H76.3848C77.3044 135.941 78.0499 135.193 78.0499 134.271V128.197C78.0499 127.275 77.3044 126.527 76.3848 126.527Z" fill="#4343AA"/>
<path d="M83.1602 135.941C82.24 135.941 81.4951 135.194 81.4951 134.271V128.201C81.4951 127.278 82.24 126.531 83.1602 126.531C84.0803 126.531 84.8252 127.278 84.8252 128.201V134.271C84.8252 135.194 84.0803 135.941 83.1602 135.941Z" fill="#4343AA"/>
<path d="M89.936 135.941C89.0159 135.941 88.271 135.194 88.271 134.271V128.201C88.271 127.278 89.0159 126.531 89.936 126.531C90.8562 126.531 91.6011 127.278 91.6011 128.201V134.271C91.6011 135.194 90.8562 135.941 89.936 135.941Z" fill="#4343AA"/>
<path d="M96.7119 135.941C95.7918 135.941 95.0469 135.194 95.0469 134.271V128.201C95.0469 127.278 95.7918 126.531 96.7119 126.531C97.6321 126.531 98.377 127.278 98.377 128.201V134.271C98.377 135.194 97.6321 135.941 96.7119 135.941Z" fill="#4343AA"/>
<path d="M103.487 135.941C102.567 135.941 101.822 135.194 101.822 134.271V128.201C101.822 127.278 102.567 126.531 103.487 126.531C104.407 126.531 105.152 127.278 105.152 128.201V134.271C105.152 135.194 104.407 135.941 103.487 135.941Z" fill="#4343AA"/>
<path d="M110.267 135.941C109.347 135.941 108.602 135.194 108.602 134.271V128.201C108.602 127.278 109.347 126.531 110.267 126.531C111.187 126.531 111.932 127.278 111.932 128.201V134.271C111.932 135.194 111.187 135.941 110.267 135.941Z" fill="#4343AA"/>
<path d="M119.954 107.413H65.3267C65.3267 107.413 65.2232 75.4388 73.409 51.2006C73.9228 49.679 74.4685 48.1893 75.0461 46.7435C76.6713 46.452 78.6232 46.1684 80.9096 45.9488C83.6143 45.6852 86.7811 45.5095 90.4259 45.5015C90.8919 45.5015 91.362 45.5055 91.8439 45.5095C94.5128 45.5374 97.0223 45.6373 99.3486 45.789C101.723 45.9408 103.906 46.1405 105.869 46.3601C107.51 46.5478 109 46.7475 110.319 46.9432C110.379 47.091 110.438 47.2428 110.498 47.4025C110.59 47.6381 110.685 47.8897 110.785 48.1493C110.912 48.4928 111.044 48.8443 111.171 49.1957C111.299 49.5512 111.422 49.9026 111.542 50.2381C111.629 50.4897 111.713 50.7333 111.793 50.961C120.058 75.2272 119.954 107.413 119.954 107.413Z" fill="#5454C8"/>
<path d="M115.358 107.413C114.9 115.8 113.852 122.969 113.171 126.983H78.7985C77.233 123.157 75.1936 116.731 74.0981 107.413H95.0307C95.2259 114.175 95.2617 120.696 95.0466 126.527H105.156C105.156 126.527 105.304 118.54 105.172 107.413H115.358Z" fill="#9A7BF0"/>
<path d="M105.172 107.413H95.0308C94.4253 86.2739 92.2305 62.8265 91.0195 51.0688C94.3576 51.0448 97.7634 51.0249 100.823 51.0049C104.053 65.2068 104.957 90.108 105.172 107.413Z" fill="#7272DB"/>
<path d="M91.7088 81.5292C99.3646 81.5292 105.571 75.4999 105.571 68.0622C105.571 60.6246 99.3646 54.5952 91.7088 54.5952C84.0529 54.5952 77.8467 60.6246 77.8467 68.0622C77.8467 75.4999 84.0529 81.5292 91.7088 81.5292Z" fill="#4343AA"/>
<path d="M105.575 66.5645C105.575 67.7986 105.404 68.9967 105.081 70.1269C104.838 70.9816 104.511 71.7963 104.105 72.5671C101.946 76.7047 97.6241 79.5283 92.6409 79.5283C85.4988 79.5283 79.7109 73.7253 79.7109 66.5645C79.7109 63.1258 81.0414 60.0067 83.2203 57.6863C84.248 56.584 85.4669 55.6655 86.8292 54.9785C86.8292 54.9785 86.8292 54.9745 86.8332 54.9745C88.5779 54.0919 90.5536 53.5967 92.6409 53.5967C99.7831 53.5967 105.575 59.4036 105.575 66.5645Z" fill="#9A7BF0"/>
<path d="M144.767 149.52H39.8257V156.425H144.767V149.52Z" fill="#FFB5B3"/>
<path d="M150.228 156.425H32.0938V163.33H150.228V156.425Z" fill="#FF9A8D"/>
<path d="M90.4261 45.5015C90.5695 46.8034 90.7766 48.7005 91.0196 51.0688C86.865 51.0967 82.8059 51.1247 79.6392 51.1527C80.1172 49.1278 80.5513 47.3666 80.9099 45.9488C83.6146 45.6852 86.7813 45.5095 90.4261 45.5015Z" fill="#D86A7D"/>
<path d="M107.315 50.969C105.515 50.977 103.28 50.989 100.822 51.0049C100.376 49.048 99.8864 47.2907 99.3486 45.7891C101.723 45.9408 103.906 46.1405 105.869 46.3602C106.164 47.2548 106.674 48.8283 107.315 50.969Z" fill="#D86A7D"/>
<path d="M78.7984 126.983H65.3267V107.413H74.098C75.1934 116.731 77.2329 123.157 78.7984 126.983Z" fill="#826ADB"/>
<path d="M80.9098 45.9487C80.5513 47.3665 80.1172 49.1278 79.6391 51.1526C75.9107 51.1806 73.4092 51.2005 73.4092 51.2005C73.923 49.6789 74.4688 48.1892 75.0463 46.7435C75.604 46.6436 76.2015 46.5438 76.8388 46.448C76.9663 46.428 77.0978 46.412 77.2252 46.392C78.3406 46.2283 79.5674 46.0765 80.9098 45.9487Z" fill="#BA5B70"/>
<path d="M73.4089 98.3992C73.5324 101.662 73.7714 104.661 74.0981 107.413H65.3267C65.3267 107.413 65.2232 75.439 73.4089 51.2008C73.4089 51.2008 75.9105 51.1808 79.6389 51.1528C76.9223 62.7388 72.8314 83.0431 73.4089 98.3992Z" fill="#4343AA"/>
<path d="M119.955 107.413V126.983H113.171C113.852 122.969 114.9 115.8 115.358 107.413H119.955Z" fill="#AB97F7"/>
<path d="M111.793 50.9612C111.753 50.9492 110.02 50.9532 107.316 50.9692C106.674 48.8285 106.164 47.255 105.87 46.3604C107.511 46.5481 109.001 46.7477 110.319 46.9434C110.379 47.0912 110.439 47.243 110.498 47.4027C110.59 47.6384 110.686 47.89 110.785 48.1496C110.913 48.493 111.044 48.8445 111.171 49.1959C111.299 49.5514 111.422 49.9028 111.542 50.2383C111.63 50.4899 111.713 50.7335 111.793 50.9612Z" fill="#ED8EA3"/>
<path d="M119.955 107.413H115.358C115.756 100.18 115.708 92.0411 114.609 84.2292C112.585 69.8836 109.319 57.6586 107.315 50.9691C110.02 50.9531 111.753 50.9491 111.793 50.9611C120.058 75.2273 119.955 107.413 119.955 107.413Z" fill="#7272DB"/>
<path d="M104.105 72.5673C101.946 76.7049 97.6241 79.5285 92.6409 79.5285C85.4988 79.5285 79.7109 73.7255 79.7109 66.5647C79.7109 63.126 81.0414 60.0069 83.2203 57.6865C83.5509 58.2217 84.1962 59.2281 85.1203 60.4702C83.774 62.1356 82.9693 64.2523 82.9693 66.5647C82.9693 71.9203 87.2992 76.2616 92.6409 76.2616C95.9272 76.2616 98.831 74.6201 100.572 72.108C101.711 72.3836 102.89 72.5434 104.105 72.5673Z" fill="#826ADB"/>
<path d="M100.572 72.1081C98.831 74.6202 95.9271 76.2616 92.6408 76.2616C87.2992 76.2616 82.9692 71.9204 82.9692 66.5647C82.9692 64.2523 83.7739 62.1356 85.1203 60.4702C87.9604 64.3002 93.4494 70.3987 100.572 72.1081Z" fill="#FFD00A"/>
<path d="M102.312 66.5646C102.312 68.6293 101.671 70.5384 100.572 72.1079C93.4493 70.3986 87.9603 64.3001 85.1201 60.4701C86.8887 58.2735 89.6014 56.8677 92.6407 56.8677C97.9824 56.8677 102.312 61.2089 102.312 66.5646Z" fill="#FFE98A"/>
<path d="M100.822 51.0049C97.7631 51.0249 94.3574 51.0448 91.0193 51.0688C90.7763 48.7005 90.5692 46.8034 90.4258 45.5015C90.8918 45.5015 91.3619 45.5055 91.8439 45.5095C92.4772 45.5174 93.1026 45.5254 93.72 45.5414C93.7997 45.5414 93.8833 45.5454 93.963 45.5494C94.8832 45.5694 95.7794 45.6013 96.6557 45.6412C97.5799 45.6812 98.4761 45.7331 99.3485 45.789C99.8863 47.2907 100.376 49.0479 100.822 51.0049Z" fill="#ED8EA3"/>
<path d="M105.156 126.527H95.0467C95.2618 120.696 95.2259 114.175 95.0308 107.413H105.172C105.304 118.54 105.156 126.527 105.156 126.527Z" fill="#AB97F7"/>
<path d="M105.081 70.1269C105.411 64.0923 101.512 57.894 95.3693 55.7813C92.0393 54.6351 89.0677 54.6391 86.833 54.9745C88.5777 54.0919 90.5535 53.5967 92.6407 53.5967C99.7829 53.5967 105.575 59.4036 105.575 66.5645C105.575 67.7985 105.403 68.9967 105.081 70.1269Z" fill="#AB97F7"/>
<path d="M53.7471 118.376L57.7703 132.051L59.9332 124.822L65.6653 123.169L65.3267 110.353L53.7471 118.376Z" fill="#BA5B70"/>
<path d="M119.955 115.173L128.806 121.223L135.318 149.519H133.211L125.81 124.822L119.955 123.132V115.173Z" fill="#BA5B70"/>
<path d="M9.85463 161.101H11.9937V158.242H7.134C6.57234 158.242 6.11824 157.786 6.11824 157.223C6.11824 156.66 6.57234 156.205 7.134 156.205H11.9937V135.066H8.51622C7.51242 135.066 6.69583 134.251 6.69583 133.241C6.69583 132.23 7.50843 131.416 8.51622 131.416H17.4628C18.4666 131.416 19.2832 132.23 19.2832 133.241C19.2832 134.251 18.4706 135.066 17.4628 135.066H13.9296V156.205H19.4386C20.0002 156.205 20.4543 156.66 20.4543 157.223C20.4543 157.786 20.0002 158.242 19.4386 158.242H13.9296V161.101H16.0368C18.1002 161.101 19.7772 162.779 19.7772 164.851H6.11426C6.11426 162.783 7.78727 161.101 9.85463 161.101Z" fill="#9A7BF0"/>
<path d="M14.2402 158.09L13.8379 159.28C13.8379 159.28 13.5113 159.788 12.5752 159.712C11.6391 159.636 11.4399 159.308 11.4399 159.308L11.6431 157.787L14.2442 158.09H14.2402Z" fill="#FFB696"/>
<path d="M22.6374 155.582L21.6694 157.171C21.6694 157.171 20.7652 157.107 20.1677 156.816C19.5702 156.524 19.3989 156.129 19.3989 156.129L20.1757 154.619L22.6414 155.582H22.6374Z" fill="#FFB696"/>
<path d="M21.8167 156.984C21.8167 156.984 22.6094 159.1 23.2308 159.927C23.8522 160.754 24.0793 160.954 24.0155 161.333C23.9518 161.712 22.454 161.78 21.3029 160.954C20.1556 160.127 20.0162 159.712 19.4984 159.076C18.9806 158.441 18.4468 158.014 18.2874 157.595C18.1241 157.175 19.6737 155.586 19.6737 155.586C19.6737 155.586 19.9087 156.772 21.8167 156.988V156.984Z" fill="#313280"/>
<path d="M13.838 159.28C13.838 159.28 14.0133 161.053 14.4435 162.343C14.8737 163.633 15.276 164.268 15.0768 164.827C14.8737 165.386 14.1168 165.638 12.8422 165.282C11.5675 164.927 11.3126 163.965 11.0855 162.774C10.8585 161.584 10.8346 161.409 10.8585 161.205C10.8824 161.001 11.44 158.876 11.44 158.876C11.44 158.876 12.4518 159.739 13.842 159.28H13.838Z" fill="#313280"/>
<path d="M27.8234 143.349L23.1948 156.373C23.1948 156.373 22.3264 156.461 21.1872 155.882C20.741 155.662 20.2511 155.33 19.7571 154.855C19.7571 154.855 21.3345 144.124 22.8721 142.195L16.9329 133.924C17.7336 137.171 18.5542 141.208 18.4108 143.708L14.9054 157.962C14.2203 158.717 13.2085 158.705 12.376 158.509C11.5674 158.322 10.934 157.962 10.934 157.962C10.934 157.962 13.0372 143.816 13.0452 143.8C12.376 141.895 10.0258 135.026 9.72705 131.959C9.87443 129.93 10.3604 126.212 10.3604 126.212L12.0573 126.204L20.8366 126.152L21.0159 128.324L21.0358 128.308C21.0358 128.308 25.4653 134.427 27.6442 139.355C28.2019 140.617 28.2696 142.043 27.8234 143.349Z" fill="#313280"/>
<path d="M21.6137 108.236C21.6137 108.236 22.6454 108.739 22.8127 110.141L26.33 120.277L23.0358 122.182C23.0358 122.182 21.1357 118.6 20.8569 115.968C20.5781 113.336 21.6098 108.24 21.6098 108.24L21.6137 108.236Z" fill="#D86A7D"/>
<path d="M17.6499 107.006L21.6134 108.236C21.6134 108.236 22.1153 110.644 22.1153 112.968C22.1153 115.293 21.3066 119.826 21.3066 119.826L20.8127 126.487L10.3604 126.208C10.3604 126.208 9.33665 111.467 9.89432 108.052L14.6385 106.303L17.6499 107.002V107.006Z" fill="#FF8B9B"/>
<path d="M14.6147 106.502L14.9772 103.583C14.6745 102.037 14.2562 99.1338 15.1923 98.3151C16.4909 97.1808 21.3904 97.069 21.3068 101.071C21.3068 101.071 20.7491 104.374 19.8529 105.831C19.4944 106.418 18.6658 106.327 17.8094 106.011L17.3274 108.06L14.6147 106.506V106.502Z" fill="#FFB696"/>
<path d="M21.1832 100.516C21.1832 100.516 18.3789 100.895 17.3911 99.9286C17.3911 99.9286 17.5385 101.019 17.0963 101.694C16.6581 102.365 16.1124 102.301 16.1124 102.301C16.1124 102.301 16.1124 101.231 15.6503 101.251C15.1883 101.27 15.0927 102.409 15.3197 103.068C15.5468 103.727 15.8615 103.727 15.8615 103.727L14.8975 104.21C14.8975 104.21 14.1646 100.955 14.1646 99.9286C14.1646 98.9022 14.7302 98.4988 14.7302 98.4988C14.7302 98.4988 15.0648 97.4085 16.4669 97.2607C17.8691 97.1129 19.5261 97.7 20.9084 98.4349C22.2906 99.1697 22.4579 99.8846 22.3543 100.032C22.2508 100.18 21.9361 100.18 21.9361 100.18C21.9361 100.18 22.1671 101.582 21.1713 101.774C21.1713 101.774 21.3067 100.895 21.1792 100.516H21.1832Z" fill="#313280"/>
<path d="M12.376 158.509C11.5674 158.321 10.934 157.962 10.934 157.962C10.934 157.962 13.0372 143.816 13.0452 143.8C12.376 141.895 10.0258 135.026 9.72705 131.958C9.87443 129.93 10.3604 126.211 10.3604 126.211C10.3604 126.211 12.0732 126.239 12.0812 126.255C12.0812 126.255 11.0973 129.167 11.6072 132.633C12.121 136.1 14.5947 143.972 14.7262 144.699C14.8496 145.402 11.655 154.667 12.376 158.509Z" fill="#26295E"/>
<path d="M17.8096 106.007C17.8096 106.007 16.2601 105.452 15.9653 104.21C15.9653 104.21 15.9653 106.355 17.6065 106.858L17.8056 106.007H17.8096Z" fill="#D88C71"/>
<path d="M14.7579 105.336L17.3272 108.056L15.706 109.054L14.021 106.534L14.7579 105.336Z" fill="#FFEFCA"/>
<path d="M17.6383 106.734L17.3276 108.056L18.5983 108.547L18.4748 106.922L17.7897 106.167L17.6383 106.734Z" fill="#FFEFCA"/>
<path d="M9.8944 108.056C9.8944 108.056 11.0297 108.854 11.5355 111.095C12.0374 113.335 12.149 121.678 12.149 121.678L8.96628 122.182C8.96628 122.182 7.5721 115.408 8.01824 111.934C8.46437 108.463 9.89838 108.056 9.89838 108.056H9.8944Z" fill="#D86A7D"/>
<path d="M35.6189 124.698C35.599 124.57 35.4715 124.303 35.356 124.003C35.2405 123.704 34.8581 123.472 34.4757 123.244C34.0933 123.017 32.014 123.132 32.014 123.132L31.9662 123.18L26.3377 120.277C24.6607 120.165 23.0435 122.182 23.0435 122.182C23.8481 123.037 28.7118 124.139 30.6079 124.542L31.6634 125.437L33.6392 126.064C33.6392 126.064 33.7547 125.693 33.6392 125.521C33.5237 125.349 32.6155 125.03 32.4601 124.802C32.3048 124.578 32.3326 124.391 33.201 124.379C34.0694 124.367 34.1132 124.742 34.3522 124.914C34.5952 125.085 34.7346 125.657 35.1648 125.728L35.591 125.8L35.4914 125.145C35.4914 125.145 35.6428 124.826 35.6269 124.698H35.6189Z" fill="#FFB696"/>
<path d="M12.1488 121.675L18.8966 125.361L17.3312 127.162C17.3312 127.162 11.2247 125.369 10.0416 124.418C8.85856 123.468 8.97009 122.178 8.97009 122.178C8.97009 122.178 10.6471 121.395 12.1528 121.675H12.1488Z" fill="#FFB696"/>
<path d="M10.0219 128.784H50.6123V127.162H10.0219V128.784Z" fill="#FF8B9B"/>
<path d="M49.2182 109.605L46.2546 122.553C46.163 122.957 45.8045 123.244 45.3942 123.244H24.9277C24.3661 123.244 23.9438 122.725 24.0633 122.17L26.8158 109.222C26.8716 108.954 27.0469 108.735 27.2779 108.623C27.4014 108.555 27.5408 108.519 27.6842 108.519H48.3538C48.9234 108.519 49.3457 109.05 49.2182 109.605Z" fill="#9A7BF0"/>
<path d="M44.7648 123.244H24.9277C24.3661 123.244 23.9438 122.725 24.0633 122.17L26.8158 109.222C26.8716 108.955 27.0469 108.735 27.2779 108.623C27.3735 108.787 33.0498 118.879 44.7648 123.244Z" fill="#836CD8"/>
<path d="M39.5627 117.03L41.5185 127.162H31.4805L31.8151 126.351H35.8582L34.5118 117.03H39.5627Z" fill="#5454C9"/>
<path d="M18.419 125.441L22.1195 125.145L23.6969 126.319L23.9081 127.158H17.3315C17.3315 127.158 17.6861 125.876 18.419 125.437V125.441Z" fill="#FFB696"/>
<path d="M47.0074 128.784L42.6615 164.852H29.5244L34.3761 128.784H47.0074Z" fill="#D86A7D"/>
<path d="M46.613 132.051L33.1812 137.654L34.3762 128.784H47.0074L46.613 132.051Z" fill="#BA5B70"/>
<path d="M24.5415 141.791C24.5415 141.791 22.7928 146.923 21.9802 150.945C21.4424 153.609 21.2552 155.143 21.1875 155.881C20.7414 155.662 20.2514 155.33 19.7575 154.855C19.7575 154.855 21.3349 144.124 22.8725 142.195L16.9333 133.924L16.6465 131.907L24.5415 141.791Z" fill="#26295E"/>
<path d="M90.5532 35.6685C90.5532 35.6685 105.869 44.4268 125.591 47.6777C125.591 47.6777 109.144 36.3234 90.5532 35.6685Z" fill="#4343AA"/>
<path d="M127.001 74.9312L126.981 76.9201C126.981 76.9201 124.248 78.2899 123.46 78.6334C122.671 78.9768 122.5 79.512 123.053 79.7037C123.607 79.8954 130.502 79.9513 130.606 79.7037C130.885 79.0607 129.881 76.944 129.881 76.944L129.71 74.9312H127.001Z" fill="#313280"/>
<path d="M142.181 74.3802L143.233 76.0935C143.233 76.0935 141.95 77.9746 141.325 78.374C140.955 78.6136 139.987 78.7454 139.732 79.1448C139.477 79.5442 139.732 79.8477 141.353 79.8676C142.974 79.8876 143.4 79.8597 144.34 79.2047C145.281 78.5497 147.073 76.9242 147.045 76.465C147.017 76.0097 145.735 74.9313 145.735 74.9313L145.193 73.6973L142.177 74.3802H142.181Z" fill="#313280"/>
<path d="M134.127 45.6852C134.127 45.6852 133.872 53.9882 135.577 59.9789C137.286 65.9696 141.895 75.4708 141.895 75.4708L146.675 74.1009C146.675 74.1009 143.261 61.6922 140.955 58.4413C140.955 58.4413 140.102 44.5789 139.162 42.6938C138.222 40.8128 134.127 45.6892 134.127 45.6892V45.6852Z" fill="#DD7385"/>
<path d="M122.249 13.3714C124.145 11.5342 127.905 12.0454 128.487 14.234C128.973 16.0672 128.865 18.0361 128.28 19.4539L129.228 21.926L126.718 23.9669L125.698 22.0938C125.165 22.3414 124.619 22.4852 124.125 22.5091C122.858 22.573 121.962 20.8238 121.44 17.7725C120.922 14.7173 122.249 13.3714 122.249 13.3714Z" fill="#FF9F7F"/>
<path d="M125.268 45.6328C122.113 44.0912 117.839 42.1862 112.637 40.2811C111.187 39.75 109.665 39.2188 108.076 38.6956C101.029 36.3832 95.5125 35.3049 91.6885 34.8097C92.9074 33.32 94.1582 31.9022 95.4408 30.5802C101.308 24.5177 107.813 20.4121 114.776 20.0566C115.17 20.3642 115.553 20.6877 115.923 21.0231C116.553 21.5982 117.146 22.2133 117.696 22.8643C122.404 28.3637 124.599 36.531 125.268 45.6328Z" fill="#D86A7D"/>
<path d="M112.816 40.5607C117.967 35.3728 116.764 25.1008 116.103 21.3027C122.042 26.7183 124.699 35.7323 125.448 45.9124C122.293 44.3708 118.019 42.4658 112.816 40.5607Z" fill="#BA5B70"/>
<path d="M134.032 24.4661C134.032 24.4661 138.118 29.2826 138.744 37.5338L130.403 40.7088C130.403 40.7088 125.141 32.0543 124.567 28.9751C123.993 25.8959 125.726 22.6849 125.726 22.6849L128.825 20.6201C128.825 20.6201 132.769 22.3814 134.032 24.4661Z" fill="#9A7BF0"/>
<path d="M130.821 24.474C131.789 25.2648 131.932 26.6945 131.135 27.657C129.486 29.6499 126.766 32.8449 124.89 34.5423C122.033 37.1303 112.055 34.095 112.055 34.095L112.529 31.4711L122.75 31.4192L127.602 24.8774C128.363 23.847 129.829 23.6633 130.821 24.474Z" fill="#5454C8"/>
<path d="M121.241 15.2883C121.241 15.2883 120.914 13.7028 122.245 12.5765C123.575 11.4543 125.431 11.5501 126.32 11.8976C127.208 12.245 127.399 12.4008 127.399 12.4008C127.399 12.4008 127.284 11.7418 127.977 11.2586C128.67 10.7753 130.12 11.7418 130.235 12.924C130.351 14.1061 129.224 14.1261 129.224 14.1261C129.224 14.1261 129.447 15.1725 129.224 16.758C129.001 18.3435 128.276 19.4538 128.276 19.4538C128.276 19.4538 127.375 18.9666 126.989 18.3076C126.989 18.3076 127.897 17.0296 127.586 16.1589C127.276 15.2883 126.312 15.6358 126.196 16.4705L126.081 17.3012L125.519 17.1654C125.519 17.1654 125.109 16.0831 125.264 14.841C125.264 14.841 121.504 15.9633 121.233 15.2843L121.241 15.2883Z" fill="#313280"/>
<path d="M122.691 22.6449C123.714 23.1481 125.152 22.9165 125.726 22.0059C126.3 21.0953 126.108 17.8644 126.108 17.8644L125.511 17.5928L124.894 19.2182C124.894 19.2182 122.392 18.8109 121.731 19.1783C121.731 19.1783 121.667 22.1417 122.691 22.6449Z" fill="#313280"/>
<path d="M128.769 20.0288L125.726 22.6847L126.276 24.2862L129.797 21.0991L128.769 20.0288Z" fill="#5454C8"/>
<path d="M112.529 31.4713L111.681 31.3635C111.681 31.3635 109.916 30.6805 109.362 30.5368C108.809 30.393 108.649 30.7165 108.749 31.004C108.749 31.004 108.45 31.3195 108.622 31.7469C108.622 31.7469 108.339 32.0424 108.57 32.4178C108.57 32.4178 108.47 32.8012 108.681 33.0369C108.896 33.2725 109.299 33.4322 109.526 33.4642C109.749 33.4961 109.876 33.4642 109.876 33.4642C109.876 33.4642 110.346 33.7438 110.773 33.7438C111.199 33.7438 111.517 33.592 111.517 33.592L112.115 33.7438L112.525 31.4713H112.529Z" fill="#FF9F7F"/>
<path d="M138.744 37.5298L139.162 38.8357L130.968 42.0028L130.403 40.7048L138.744 37.5298Z" fill="#5454C8"/>
<path d="M139.162 38.8354L130.968 42.0025L124.416 55.9927C123.878 57.1389 123.679 58.4169 123.838 59.671L125.846 75.4624H130.403C130.403 75.4624 130.968 71.7841 130.797 66.2208C130.693 62.878 130.008 60.282 129.474 58.7404C130 58.0735 137.923 47.9812 139.162 45.0857C140.441 42.0904 139.162 38.8394 139.162 38.8394V38.8354Z" fill="#FF8B9B"/>
<path d="M179.876 165.446H182.609L144.424 81.1698H148.862V79.5283H114.605V81.1698H119.955L127.921 99.0499V99.1338H127.961L132.419 109.138V109.338H132.51L136.916 119.226V119.542H137.055L141.409 129.315V129.746H141.6L145.902 139.403V139.95H146.145L150.399 149.491V150.154H150.694L154.897 159.58V160.358H155.243L157.506 165.434H160.238L157.936 160.358H177.606L179.868 165.434L179.876 165.446ZM149.595 97.4963H129.459L125.579 88.9297H145.779L149.595 97.4963ZM142.321 81.1698L145.05 87.2882H124.838L122.066 81.1698H142.325H142.321ZM150.328 99.1338L154.144 107.7H134.084L130.204 99.1338H150.328ZM154.877 109.338L158.693 117.905H138.708L134.828 109.338H154.877ZM159.426 119.542L163.242 128.109H143.333L139.453 119.542H159.426ZM163.975 129.746L167.791 138.313H147.958L144.078 129.746H163.975ZM168.524 139.95L172.34 148.517H152.582L148.703 139.95H168.524ZM157.207 158.721L153.327 150.154H173.073L176.889 158.721H157.207Z" fill="#D86A7D"/>
<path d="M125.591 45.5011V47.6778C125.591 47.6778 117.142 42.5817 108.478 39.7661C99.8105 36.9545 90.5532 35.6685 90.5532 35.6685L91.3101 34.5861L91.6885 34.047C91.6885 34.047 98.7868 33.7714 109.371 37.5296C119.954 41.2877 125.591 45.5011 125.591 45.5011Z" fill="#9A7BF0"/>
<path d="M117.696 22.8643C116.087 21.9137 113.788 21.2548 110.781 22.0256C106.12 23.2237 99.1454 27.9204 95.4409 30.5802C101.308 24.5177 107.813 20.4121 114.776 20.0566C115.17 20.3642 115.553 20.6877 115.923 21.0231C116.553 21.5982 117.146 22.2133 117.696 22.8643Z" fill="#ED8EA3"/>
<path d="M125.591 45.5014V47.678C125.591 47.678 117.142 42.582 108.478 39.7664C99.8105 36.9547 90.5532 35.6687 90.5532 35.6687L91.3101 34.5864C92.8755 34.5864 96.8708 34.854 103.332 37.0106C111.876 39.8622 123.826 45.3776 125.591 45.5014Z" fill="#826ADB"/>
<path d="M129.335 97.54H112.713V131.311H129.335V97.54Z" fill="#8CD3E8"/>
<path d="M114.605 99.8843H127.627" stroke="#5454C8" stroke-width="0.5" stroke-miterlimit="10"/>
<path d="M129.335 131.311H112.713V97.54C112.713 97.54 117.545 122.913 129.335 131.311Z" fill="#71BBCC"/>
<path d="M114.776 101.194H127.627" stroke="#5454C8" stroke-width="0.5" stroke-miterlimit="10"/>
<path d="M114.605 125.365H127.627" stroke="#5454C8" stroke-width="0.5" stroke-miterlimit="10"/>
<path d="M114.776 126.675H127.627" stroke="#5454C8" stroke-width="0.5" stroke-miterlimit="10"/>
<path d="M114.605 128.112H127.627" stroke="#5454C8" stroke-width="0.5" stroke-miterlimit="10"/>
<path d="M114.776 129.422H127.627" stroke="#5454C8" stroke-width="0.5" stroke-miterlimit="10"/>
<path d="M123.783 108.743C123.385 105.492 120.198 103.379 120.198 103.379C120.198 103.379 117.011 105.492 116.613 108.743C116.215 111.993 118.405 120.101 118.405 120.101H121.99C121.99 120.101 124.181 111.993 123.783 108.743Z" stroke="white" stroke-width="0.5" stroke-linecap="round" stroke-linejoin="round"/>
<path d="M117.453 116.099C117.453 116.099 115.641 117.401 115.171 117.872C114.701 118.344 114.701 120.868 114.701 120.868L115.959 118.899L118.043 118.691" stroke="white" stroke-width="0.5" stroke-linecap="round" stroke-linejoin="round"/>
<path d="M122.95 116.099C122.95 116.099 124.763 117.401 125.233 117.872C125.703 118.344 125.703 120.868 125.703 120.868L124.444 118.899L122.361 118.691" stroke="white" stroke-width="0.5" stroke-linecap="round" stroke-linejoin="round"/>
<path d="M122.361 110.512C122.361 111.658 121.433 112.589 120.29 112.589C119.146 112.589 118.218 111.658 118.218 110.512C118.218 109.366 119.146 108.435 120.29 108.435C121.433 108.435 122.361 109.366 122.361 110.512Z" fill="#FFE98A"/>
<path d="M127.627 102.936H123.356V104.285H127.627V102.936Z" fill="#FFE98A"/>
<path d="M126.842 105.739C126.842 106.199 126.467 106.574 126.009 106.574C125.551 106.574 125.177 106.199 125.177 105.739C125.177 105.28 125.551 104.905 126.009 104.905C126.467 104.905 126.842 105.28 126.842 105.739Z" fill="white"/>
<path d="M137.553 118.899C137.553 118.899 138.462 119.646 138.163 123.628C137.864 127.609 136.585 127.905 135.048 127.649L137.553 118.899Z" fill="#FFB696"/>
<path d="M133.717 114.901L133.199 117.796L130.148 118.471L130.292 116.375C129.587 116.411 128.941 116.327 128.607 115.979C128.507 115.875 128.435 115.748 128.396 115.596C127.973 113.938 128.419 110.616 128.419 110.616C129.527 106.77 133.474 108.191 134.379 109.661C135.032 110.723 134.466 113.515 133.717 114.901Z" fill="#FFB696"/>
<path d="M130.291 116.375C129.586 116.411 128.941 116.327 128.606 115.979C128.997 115.943 130.064 115.796 130.566 115.173C131.016 114.614 130.291 116.375 130.291 116.375Z" fill="#D88E75"/>
<path d="M135.609 114.238C135.561 114.338 135.51 114.437 135.454 114.533C134.45 116.311 132.829 116.33 131.526 115.839C130.224 115.348 130.395 114.553 130.395 114.553C130.395 114.553 130.758 114.749 131.12 114.214C131.335 113.894 131.439 113.315 131.375 112.884C131.331 112.592 131.208 112.369 130.993 112.353C130.937 112.349 130.881 112.353 130.833 112.369C130.427 112.465 130.288 113.056 130.288 113.056C130.013 112.628 130.16 112.221 130.16 112.221C129.009 111.881 128.945 111.175 128.945 111.175L128.838 111.686C128.24 111.558 127.495 110.659 127.878 109.549C128.216 108.563 128.989 108.223 129.164 108.159C129.188 108.147 129.2 108.143 129.2 108.143C129.969 107.636 132.574 106.917 134.151 107.752C135.729 108.587 135.581 109.912 135.581 109.912C136.41 110.763 136.454 112.544 135.609 114.238Z" fill="#313280"/>
<path d="M137.78 110.232C137.772 110.264 137.768 110.296 137.76 110.324C137.553 111.203 136.876 111.51 136.199 111.375C136.199 111.375 136.196 111.375 136.191 111.375C135.976 111.335 135.761 111.243 135.561 111.115C135.386 110.999 135.235 110.859 135.107 110.712C134.9 110.464 134.757 110.189 134.661 109.957C134.641 109.917 134.629 109.877 134.617 109.841C134.526 109.597 134.494 109.426 134.494 109.426C134.494 109.426 134.478 109.294 134.482 109.094C134.478 109.078 134.478 109.062 134.482 109.046C134.482 109.01 134.482 108.974 134.486 108.934C134.526 108.395 134.745 107.601 135.665 107.477C137.075 107.285 138.015 108.994 137.78 110.236V110.232Z" fill="#313280"/>
<path d="M136.151 131.276V131.575C136.151 131.575 134.382 132.246 131.933 132.114C130.973 132.062 130.045 131.935 129.272 131.803C128.069 131.591 127.236 131.364 127.236 131.364L127.806 128.348L127.567 126.2C126.985 125.74 126.201 125.005 126.041 124.267C125.878 123.5 126.416 121.167 126.822 119.586L126.667 118.208C126.846 118.152 127.037 118.096 127.24 118.044C127.276 118.036 127.316 118.024 127.352 118.016C129.606 117.441 133.08 117.05 133.08 117.05C135.004 117.261 137.553 118.899 137.553 118.899C137.418 120.233 136.063 126.072 136.063 126.072L136.111 128.911L136.151 131.276Z" fill="#9A7BF0"/>
<path d="M136.151 131.275L129.272 131.803C128.069 131.591 127.236 131.363 127.236 131.363L127.806 128.348L127.567 126.199C126.985 125.74 126.201 125.005 126.041 124.266C125.878 123.5 126.416 121.167 126.822 119.586L126.667 118.208C126.846 118.152 127.037 118.096 127.24 118.044C127.276 118.036 127.316 118.024 127.352 118.016C127.563 119.869 128.475 126.283 130.303 127.717C131.96 129.019 134.912 128.987 136.111 128.911L136.151 131.275Z" fill="#7961D1"/>
<path d="M126.667 118.208L120.748 122.257L115.171 117.121L115.179 117.113C115.179 117.113 114.868 115.935 114.772 115.68C114.677 115.424 114.131 114.749 113.972 114.717C113.812 114.685 113.856 114.901 113.908 115.037C113.96 115.176 114.143 115.744 114.143 115.744L113.044 115.188C113.044 115.188 112.777 114.45 112.598 114.43C112.414 114.41 112.47 115.125 112.649 115.424C112.649 115.424 112.402 115.608 112.482 115.915C112.482 115.915 112.275 116.119 112.402 116.43C112.402 116.43 112.116 116.718 112.637 117.297C113.159 117.876 113.884 118.379 113.884 118.379C114.526 119.31 118.27 124.634 120.489 125.257C122.922 125.94 126.42 123.216 126.42 123.216C126.42 123.216 128.953 121.179 126.663 118.212L126.667 118.208Z" fill="#FFB696"/>
<path d="M133.382 169.683C133.068 169.739 126.782 169.827 126.667 169.512C126.555 169.196 126.439 168.913 127.806 168.485C128.089 168.397 128.391 168.246 128.694 168.07C129.495 167.591 130.287 166.896 130.69 166.52L129.459 160.038L129.172 158.529H132.924C133.008 158.84 133.068 159.507 133.112 160.338C133.223 162.515 133.215 165.805 133.211 166.688C133.211 166.688 133.267 167.028 133.327 167.479C133.446 168.354 133.59 169.647 133.382 169.683Z" fill="#FFB696"/>
<path d="M142.883 169.512C142.616 169.683 138.406 169.56 137.239 169.524C137.06 169.516 136.952 169.312 137.06 169.168C137.263 168.893 137.701 168.605 138.274 168.286C138.414 168.21 138.553 168.098 138.689 167.962C139.163 167.499 139.605 166.768 139.828 166.373L138.358 160.042H138.354L137.948 158.285L141.449 158.712C141.569 159.036 141.672 159.627 141.768 160.346C142.031 162.347 142.194 165.33 142.246 166.257H142.258C142.258 166.257 142.381 166.66 142.521 167.175C142.772 168.09 143.082 169.384 142.883 169.512Z" fill="#FFB696"/>
<path d="M133.112 160.338C131.208 160.442 129.459 160.038 129.459 160.038L129.172 158.529H132.925C133.008 158.84 133.068 159.507 133.112 160.338Z" fill="#D88E75"/>
<path d="M141.768 160.346C140.071 160.406 138.545 160.082 138.358 160.042H138.354L137.948 158.285L141.449 158.712C141.569 159.036 141.672 159.627 141.768 160.346Z" fill="#D88E75"/>
<path d="M142.453 158.413C141.553 158.813 140.616 158.984 139.792 159.048C138.35 159.152 137.247 158.912 137.247 158.912L132.873 140.014L133.817 158.529C132.98 159.06 131.805 159.192 130.77 159.176C130.758 159.18 130.75 159.18 130.738 159.176C130.077 159.168 129.471 159.1 129.049 159.036C128.666 158.98 128.431 158.928 128.431 158.928C128.431 158.928 124.763 143.608 125.36 138.217C125.958 132.825 127.236 131.363 127.236 131.363C129.113 130.864 130.774 130.617 132.136 130.509C134.641 130.301 136.139 130.561 136.139 130.561C139.023 133.728 138.932 138.388 138.932 138.388L142.453 158.413Z" fill="#313280"/>
<path d="M133.382 169.683C133.068 169.739 126.782 169.827 126.667 169.512C126.555 169.196 126.439 168.913 127.806 168.485C128.089 168.397 128.391 168.246 128.694 168.07C128.694 168.174 128.746 168.29 129.001 168.298C129.471 168.314 130.367 168.058 131.701 167.483C132.984 166.936 133.303 167.439 133.327 167.479C133.446 168.354 133.59 169.648 133.382 169.683Z" fill="#313280"/>
<path d="M142.883 169.512C142.616 169.683 138.406 169.56 137.239 169.524C137.06 169.516 136.952 169.312 137.06 169.168C137.263 168.893 137.701 168.605 138.274 168.286C138.414 168.21 138.553 168.098 138.689 167.962C138.792 168.006 138.976 168.03 139.286 167.97C140.051 167.83 140.326 166.86 141.489 166.86C142.071 166.86 142.365 167.016 142.521 167.175C142.772 168.09 143.082 169.384 142.883 169.512Z" fill="#313280"/>
<path d="M139.792 159.048C138.35 159.152 137.247 158.912 137.247 158.912L132.873 140.014L136.004 137.653C136.004 137.653 135.673 143.987 136.637 149.008C137.434 153.165 139.207 157.634 139.792 159.048Z" fill="#26295E"/>
<path d="M127.814 139.395C127.021 147.426 130.682 158.909 130.77 159.176H130.738L129.049 159.036C128.666 158.98 128.431 158.929 128.431 158.929C128.431 158.929 124.763 143.608 125.36 138.217C125.958 132.825 127.236 131.363 127.236 131.363C129.113 130.864 130.774 130.617 132.136 130.509C130.881 131.228 128.404 133.388 127.814 139.395Z" fill="#26295E"/>
<path d="M120.803 122.489L120.198 123.999C120.198 123.999 119.716 122.657 120.803 122.489Z" fill="#D88E75"/>
<path d="M130.57 125.365H135.701C135.701 125.365 135.777 126.243 133.554 126.243C131.331 126.243 130.57 125.365 130.57 125.365Z" fill="#7961D1"/>
<path d="M130.288 113.056C130.013 112.629 130.16 112.221 130.16 112.221C129.009 111.882 128.945 111.175 128.945 111.175L128.838 111.686C128.24 111.558 127.495 110.66 127.878 109.549C128.216 108.563 128.989 108.224 129.164 108.16C129.232 108.879 129.523 110.927 130.833 112.369C130.427 112.465 130.288 113.056 130.288 113.056Z" fill="#26295E"/>
<path d="M135.609 114.238C135.562 114.338 135.51 114.438 135.454 114.534C134.45 116.311 132.829 116.331 131.526 115.84C130.224 115.348 130.395 114.554 130.395 114.554C130.395 114.554 130.758 114.749 131.12 114.214C131.335 113.895 131.439 113.316 131.375 112.884C131.757 113.192 132.208 113.447 132.733 113.623C134.056 114.07 134.976 114.222 135.609 114.238Z" fill="#26295E"/>
<path d="M137.76 110.324C137.553 111.202 136.876 111.51 136.199 111.374C136.199 111.374 136.196 111.374 136.191 111.374C135.705 111.234 135.354 110.991 135.107 110.711C134.892 110.472 134.753 110.208 134.661 109.956C134.641 109.917 134.629 109.877 134.617 109.841C134.522 109.537 134.49 109.262 134.482 109.094C134.478 109.078 134.478 109.062 134.482 109.046C134.474 108.962 134.478 108.914 134.478 108.914C134.482 108.918 134.482 108.926 134.486 108.93C135.08 110.256 136.984 110.348 137.76 110.328V110.324Z" fill="#26295E"/>
</g>
<defs>
<clipPath id="clip0_2008_856">
<rect width="187.787" height="172" fill="white"/>
</clipPath>
</defs>
</svg>
