<svg width="524" height="562" viewBox="0 0 524 562" fill="none" xmlns="http://www.w3.org/2000/svg">
<g clip-path="url(#clip0_2_5578)">
<path d="M216.993 562C386.541 562 523.987 554.393 523.987 545.01C523.987 535.626 386.541 528.02 216.993 528.02C47.4457 528.02 -90 535.626 -90 545.01C-90 554.393 47.4457 562 216.993 562Z" fill="#FFF1E2"/>
<path d="M132.154 86.7787C224.795 70.2581 298.929 100.637 327.738 141.43C356.548 182.222 405.662 156.123 446.597 209.809C487.532 263.494 488.887 395.998 295.165 405.616C101.443 415.233 3.14926 387.229 -17.3769 328.35C-37.903 269.471 -25.8687 114.952 132.154 86.7787Z" fill="#FFF1E2"/>
<path d="M104.243 122.625C104.243 122.625 133.729 198.234 255.18 209.535C376.631 220.836 418.074 180.565 460.429 192.309" stroke="#FF9A8D" stroke-linecap="round" stroke-linejoin="round"/>
<path d="M70.7576 125.079L89.9943 97.4662L116.772 89.3886L38.2622 59.1792L70.7576 125.079Z" fill="#FF9A8D"/>
<path d="M38.2622 59.1792L87.5718 100.937L93.1202 114.261L95.5427 95.7959L38.2622 59.1792Z" fill="#D66F67"/>
<path d="M82.1147 108.78L93.1202 114.261L87.5719 100.938L82.1147 108.78Z" fill="#EF857D"/>
<path d="M23.992 205.079C44.8233 194.641 53.2651 169.259 42.8472 148.387C32.4292 127.516 7.09669 119.058 -13.7346 129.496C-34.566 139.934 -43.0077 165.315 -32.5898 186.187C-22.1719 207.059 3.16064 215.517 23.992 205.079Z" stroke="#FF9A8D" stroke-linecap="round" stroke-linejoin="round"/>
<path d="M472.107 303.148C483.564 298.451 489.053 285.338 484.365 273.858C479.678 262.378 466.59 256.879 455.132 261.576C443.675 266.272 438.187 279.386 442.874 290.865C447.561 302.345 460.649 307.844 472.107 303.148Z" stroke="#FF9A8D" stroke-linecap="round" stroke-linejoin="round"/>
<path d="M174.548 57.8745C186.395 57.8745 195.998 48.252 195.998 36.3821C195.998 24.5121 186.395 14.8896 174.548 14.8896C162.701 14.8896 153.097 24.5121 153.097 36.3821C153.097 48.252 162.701 57.8745 174.548 57.8745Z" fill="#8CD3E8"/>
<path d="M181.555 44.8644C180.46 46.0389 178.963 46.8088 177.048 47.1611V50.3582H172.281V47.2655C169.585 46.9393 167.449 46.1432 165.899 44.8514L167.345 41.602C167.723 41.9544 168.244 42.3198 168.934 42.6982C169.611 43.0766 170.393 43.4029 171.278 43.6639C172.164 43.9248 173.05 44.0553 173.961 44.0553C175.068 44.0553 176.006 43.8074 176.775 43.2985C177.543 42.8026 177.934 42.0066 177.934 40.9235C177.934 40.3232 177.712 39.8143 177.257 39.3967C176.814 38.9791 176.267 38.6398 175.628 38.3788C174.99 38.1178 174.157 37.8438 173.128 37.5437C171.734 37.1391 170.536 36.6563 169.52 36.0952C168.504 35.5341 167.671 34.7772 167.033 33.8115C166.394 32.8589 166.069 31.6584 166.069 30.2229C166.069 29.1529 166.316 28.1742 166.798 27.2738C167.28 26.3734 167.996 25.6295 168.921 25.0162C169.846 24.4029 170.966 23.9723 172.281 23.7504V19.8486H177.048V23.7635C178.181 23.9723 179.171 24.3115 180.031 24.7422C180.877 25.1859 181.476 25.6295 181.828 26.0732L180.226 29.1659C180.07 28.9571 179.718 28.67 179.184 28.3308C178.65 27.9915 178.012 27.6913 177.283 27.4304C176.553 27.1694 175.824 27.0389 175.081 27.0389C173.948 27.0389 172.998 27.2868 172.229 27.7827C171.461 28.2786 171.07 28.9963 171.07 29.9358C171.07 30.9407 171.5 31.7106 172.372 32.2325C173.245 32.7676 174.326 33.1721 175.642 33.4722C177.869 33.9942 179.692 34.8555 181.086 36.043C182.479 37.2305 183.183 38.7181 183.183 40.5059C183.183 42.2937 182.636 43.69 181.555 44.8514V44.8644Z" fill="white"/>
<path d="M37.2591 296.914H60.7027V307.953C60.7027 311.268 58.0197 313.969 54.6985 313.969H43.2503C39.9421 313.969 37.2461 311.281 37.2461 307.953V296.914H37.2591Z" fill="#D86A7D"/>
<path d="M82.297 259.07C82.297 267.853 78.8977 275.839 73.3624 281.803C71.9688 283.303 70.445 284.66 68.8039 285.887C68.7909 294.134 62.1095 300.829 53.8782 300.829H43.55C35.3057 300.829 28.6113 294.121 28.6113 285.861V285.456C27.1786 284.347 25.8501 283.134 24.6128 281.803C19.0775 275.852 15.6782 267.853 15.6782 259.07C15.6782 240.632 30.5909 225.69 48.9941 225.69C67.3973 225.69 82.297 240.632 82.297 259.07Z" fill="#8CD3E8"/>
<path d="M73.3624 281.803C71.9688 283.303 70.445 284.66 68.8039 285.887C68.7909 294.134 62.1095 300.829 53.8782 300.829H43.55C35.3057 300.829 28.6112 294.121 28.6112 285.861V285.456C27.1786 284.347 25.8501 283.134 24.6128 281.803C27.5823 271.115 37.3765 263.259 48.9941 263.259C60.6117 263.259 70.3929 271.115 73.3624 281.803Z" fill="#71BBCC"/>
<path d="M62.3832 258.118H60.5338C60.5338 264.186 55.8451 269.158 49.9191 269.641V258.118C49.9191 257.609 49.5023 257.191 48.9943 257.191C48.4864 257.191 48.0696 257.609 48.0696 258.118V269.641C42.1306 269.171 37.4549 264.186 37.4549 258.118H35.6055C35.6055 265.204 41.1277 271.024 48.0826 271.494V298.95C48.0826 299.459 48.4994 299.876 49.0074 299.876C49.5153 299.876 49.9321 299.459 49.9321 298.95V271.494C56.887 271.011 62.4093 265.204 62.4093 258.118H62.3832Z" fill="white"/>
<path d="M54.5425 231.04C54.5425 231.04 65.7303 232.593 71.9819 243.907" stroke="white" stroke-width="3" stroke-linecap="round" stroke-linejoin="round"/>
<path d="M74.3521 249.257L74.9772 250.797" stroke="white" stroke-width="3" stroke-linecap="round" stroke-linejoin="round"/>
<path d="M460.429 127.389V114.979L451.103 113.1C450.778 112.082 450.374 111.103 449.931 110.137L455.87 102.504L447.782 93.1079L438.887 98.132C437.428 97.3098 435.878 96.6313 434.263 96.0962L432.205 85.748H419.819L417.735 96.0832C416.199 96.5921 414.714 97.2315 413.307 98.0015L403.422 92.4163L395.334 101.812L401.963 110.333C401.69 110.933 401.442 111.56 401.221 112.186L390.775 114.3V126.71L400.713 128.694C401.038 129.777 401.429 130.834 401.872 131.852L394.93 140.778L403.018 150.173L413.32 144.353C414.258 144.875 415.248 145.319 416.251 145.71L418.595 157.52H430.981L433.182 146.558C434.55 146.167 435.878 145.671 437.142 145.071L447.366 150.852L455.454 141.456L449.267 133.509C449.983 132.152 450.583 130.729 451.064 129.242L460.403 127.389H460.429ZM425.993 134.644C418.569 134.644 412.539 128.615 412.539 121.164C412.539 113.713 418.556 107.684 425.993 107.684C433.43 107.684 439.447 113.713 439.447 121.164C439.447 128.615 433.43 134.644 425.993 134.644Z" fill="#FF9A8D"/>
<path d="M440.014 136.069C447.969 128.099 447.969 115.176 440.014 107.206C432.059 99.2358 419.161 99.2358 411.206 107.206C403.251 115.176 403.251 128.099 411.206 136.069C419.161 144.04 432.059 144.04 440.014 136.069Z" stroke="white" stroke-linecap="round" stroke-linejoin="round"/>
<path d="M250.948 29.8572H245.178V24.0763C245.178 23.7109 244.891 23.4238 244.527 23.4238C244.162 23.4238 243.876 23.7109 243.876 24.0763V29.8572H238.106C237.741 29.8572 237.455 30.1443 237.455 30.5097C237.455 30.8751 237.741 31.1621 238.106 31.1621H243.876V36.943C243.876 37.3084 244.162 37.5955 244.527 37.5955C244.891 37.5955 245.178 37.3084 245.178 36.943V31.1621H250.948C251.312 31.1621 251.599 30.8751 251.599 30.5097C251.599 30.1443 251.312 29.8572 250.948 29.8572Z" fill="#FF8968"/>
<path d="M432.427 236.821H426.657V231.04C426.657 230.675 426.37 230.388 426.006 230.388C425.641 230.388 425.355 230.675 425.355 231.04V236.821H419.585C419.22 236.821 418.934 237.108 418.934 237.474C418.934 237.839 419.22 238.126 419.585 238.126H425.355V243.907C425.355 244.272 425.641 244.559 426.006 244.559C426.37 244.559 426.657 244.272 426.657 243.907V238.126H432.427C432.791 238.126 433.078 237.839 433.078 237.474C433.078 237.108 432.791 236.821 432.427 236.821Z" fill="#FF8968"/>
<path d="M163.229 129.829C165.617 129.829 167.553 127.889 167.553 125.496C167.553 123.104 165.617 121.164 163.229 121.164C160.841 121.164 158.905 123.104 158.905 125.496C158.905 127.889 160.841 129.829 163.229 129.829Z" fill="#FF9A8D"/>
<path d="M99.4241 333.452C101.812 333.452 103.748 331.513 103.748 329.12C103.748 326.727 101.812 324.788 99.4241 324.788C97.036 324.788 95.1001 326.727 95.1001 329.12C95.1001 331.513 97.036 333.452 99.4241 333.452Z" fill="#FF9A8D"/>
<path d="M23.5839 29.5831H100.896C100.896 29.5831 95.8682 16.4423 83.3129 11.1312C70.7576 5.8201 60.9894 15.3201 60.9894 15.3201C60.9894 15.3201 52.3283 -1.56588 35.3057 0.117502C18.283 1.80088 12.7087 14.8503 12.7087 14.8503C12.7087 14.8503 -6.82762 11.1312 -8.78125 29.5962H23.5969L23.5839 29.5831Z" fill="#FFF1E2"/>
<path d="M401.39 60.1059H464.753C464.753 60.1059 460.637 49.3401 450.348 44.9816C440.059 40.6231 432.049 48.4136 432.049 48.4136C432.049 48.4136 424.951 34.5812 411.002 35.9514C397.053 37.3216 392.482 48.0221 392.482 48.0221C392.482 48.0221 376.475 44.9816 374.873 60.1059H401.403H401.39Z" fill="#FFF1E2"/>
<path d="M129.38 356.563L85.7355 386.785L66.6812 488.545H81.7632L105.962 407.847L132.154 400.292L129.38 356.563Z" fill="#D86A7D"/>
<path d="M297.952 356.563L341.596 386.785L360.638 488.545H345.556L321.357 407.847L295.165 400.292L297.952 356.563Z" fill="#D86A7D"/>
<path d="M222.203 400.931H206.77H140.711L149.268 449.775H206.77H222.203H279.705L288.262 400.931H222.203Z" fill="#313280"/>
<path d="M159.752 413.419H159.739C156.732 413.419 154.295 415.862 154.295 418.874V438.722C154.295 441.735 156.732 444.177 159.739 444.177H159.752C162.759 444.177 165.196 441.735 165.196 438.722V418.874C165.196 415.862 162.759 413.419 159.752 413.419Z" fill="#4343AA"/>
<path d="M181.907 444.177C178.898 444.177 176.462 441.737 176.462 438.722V418.887C176.462 415.873 178.898 413.433 181.907 413.433C184.915 413.433 187.351 415.873 187.351 418.887V438.722C187.351 441.737 184.915 444.177 181.907 444.177Z" fill="#4343AA"/>
<path d="M204.06 444.177C201.052 444.177 198.616 441.737 198.616 438.722V418.887C198.616 415.873 201.052 413.433 204.06 413.433C207.069 413.433 209.504 415.873 209.504 418.887V438.722C209.504 441.737 207.069 444.177 204.06 444.177Z" fill="#4343AA"/>
<path d="M226.215 444.177C223.206 444.177 220.771 441.737 220.771 438.722V418.887C220.771 415.873 223.206 413.433 226.215 413.433C229.223 413.433 231.659 415.873 231.659 418.887V438.722C231.659 441.737 229.223 444.177 226.215 444.177Z" fill="#4343AA"/>
<path d="M248.369 444.177C245.36 444.177 242.925 441.737 242.925 438.722V418.887C242.925 415.873 245.36 413.433 248.369 413.433C251.378 413.433 253.813 415.873 253.813 418.887V438.722C253.813 441.737 251.378 444.177 248.369 444.177Z" fill="#4343AA"/>
<path d="M270.536 444.177C267.527 444.177 265.092 441.737 265.092 438.722V418.887C265.092 415.873 267.527 413.433 270.536 413.433C273.544 413.433 275.98 415.873 275.98 418.887V438.722C275.98 441.737 273.544 444.177 270.536 444.177Z" fill="#4343AA"/>
<path d="M302.211 350.965H123.597C123.597 350.965 123.258 246.491 150.023 167.294C151.703 162.322 153.487 157.455 155.376 152.731C160.69 151.778 167.072 150.852 174.548 150.134C183.391 149.273 193.745 148.698 205.662 148.672C207.186 148.672 208.723 148.685 210.299 148.698C219.025 148.79 227.23 149.116 234.837 149.612C242.599 150.108 249.736 150.76 256.157 151.478C261.523 152.091 266.394 152.744 270.705 153.383C270.901 153.866 271.096 154.362 271.291 154.884C271.591 155.654 271.903 156.476 272.229 157.324C272.646 158.446 273.076 159.595 273.492 160.743C273.909 161.904 274.313 163.053 274.704 164.149C274.99 164.971 275.264 165.767 275.524 166.511C302.549 245.799 302.211 350.965 302.211 350.965Z" fill="#5454C8"/>
<path d="M287.181 350.965C285.683 378.369 282.258 401.792 280.031 414.907H167.645C162.526 402.406 155.858 381.409 152.276 350.965H220.719C221.357 373.058 221.474 394.367 220.771 413.419H253.826C253.826 413.419 254.308 387.321 253.878 350.965H287.181Z" fill="#9A7BF0"/>
<path d="M253.878 350.965H220.718C218.739 281.894 211.562 205.281 207.603 166.863C218.517 166.785 229.653 166.72 239.656 166.654C250.218 213.058 253.175 294.421 253.878 350.965Z" fill="#7272DB"/>
<path d="M209.856 266.391C234.888 266.391 255.181 246.69 255.181 222.388C255.181 198.086 234.888 178.386 209.856 178.386C184.825 178.386 164.532 198.086 164.532 222.388C164.532 246.69 184.825 266.391 209.856 266.391Z" fill="#4343AA"/>
<path d="M255.194 217.495C255.194 221.527 254.634 225.442 253.579 229.135C252.784 231.928 251.716 234.59 250.388 237.108C243.329 250.628 229.197 259.854 212.904 259.854C189.552 259.854 170.627 240.893 170.627 217.495C170.627 206.259 174.978 196.068 182.102 188.486C185.462 184.885 189.447 181.883 193.902 179.639C193.902 179.639 193.902 179.626 193.915 179.626C199.619 176.742 206.079 175.124 212.904 175.124C236.256 175.124 255.194 194.097 255.194 217.495Z" fill="#9A7BF0"/>
<path d="M383.338 488.545H40.2158V511.107H383.338V488.545Z" fill="#FFB5B3"/>
<path d="M401.195 511.107H14.936V533.67H401.195V511.107Z" fill="#FF9A8D"/>
<path d="M205.663 148.672C206.131 152.926 206.809 159.125 207.603 166.863C194.019 166.955 180.747 167.046 170.393 167.137C171.956 160.521 173.376 154.766 174.548 150.134C183.391 149.273 193.745 148.698 205.663 148.672Z" fill="#D86A7D"/>
<path d="M260.885 166.537C254.998 166.563 247.692 166.602 239.656 166.654C238.197 160.26 236.595 154.518 234.837 149.612C242.599 150.108 249.737 150.76 256.158 151.478C257.121 154.401 258.788 159.542 260.885 166.537Z" fill="#D86A7D"/>
<path d="M167.645 414.907H123.597V350.965H152.276C155.858 381.409 162.527 402.406 167.645 414.907Z" fill="#826ADB"/>
<path d="M174.548 150.134C173.375 154.766 171.956 160.521 170.393 167.137C158.202 167.229 150.023 167.294 150.023 167.294C151.703 162.322 153.487 157.455 155.376 152.731C157.199 152.404 159.153 152.078 161.237 151.765C161.654 151.7 162.083 151.648 162.5 151.582C166.147 151.047 170.158 150.551 174.548 150.134Z" fill="#BA5B70"/>
<path d="M150.023 321.512C150.427 332.173 151.208 341.974 152.276 350.965H123.597C123.597 350.965 123.258 246.491 150.023 167.294C150.023 167.294 158.202 167.229 170.393 167.137C161.51 204.994 148.134 271.337 150.023 321.512Z" fill="#4343AA"/>
<path d="M302.211 350.965V414.907H280.031C282.258 401.792 285.683 378.369 287.181 350.965H302.211Z" fill="#AB97F7"/>
<path d="M275.524 166.511C275.394 166.472 269.728 166.485 260.885 166.537C258.788 159.543 257.121 154.401 256.157 151.478C261.523 152.091 266.394 152.744 270.705 153.383C270.901 153.866 271.096 154.362 271.291 154.884C271.591 155.654 271.903 156.476 272.229 157.324C272.646 158.446 273.076 159.595 273.492 160.743C273.909 161.905 274.313 163.053 274.704 164.149C274.99 164.971 275.264 165.767 275.524 166.511Z" fill="#ED8EA3"/>
<path d="M302.211 350.965H287.181C288.484 327.332 288.327 300.738 284.733 275.213C278.116 228.339 267.436 188.395 260.885 166.537C269.729 166.485 275.394 166.472 275.524 166.511C302.55 245.799 302.211 350.965 302.211 350.965Z" fill="#7272DB"/>
<path d="M250.388 237.109C243.329 250.628 229.197 259.854 212.904 259.854C189.552 259.854 170.627 240.893 170.627 217.495C170.627 206.26 174.978 196.068 182.102 188.486C183.183 190.235 185.293 193.523 188.314 197.582C183.912 203.023 181.281 209.94 181.281 217.495C181.281 234.995 195.439 249.179 212.904 249.179C223.649 249.179 233.144 243.816 238.835 235.608C242.56 236.508 246.415 237.03 250.388 237.109Z" fill="#826ADB"/>
<path d="M238.835 235.608C233.144 243.816 223.649 249.179 212.904 249.179C195.439 249.179 181.281 234.994 181.281 217.495C181.281 209.939 183.912 203.023 188.314 197.582C197.601 210.096 215.548 230.022 238.835 235.608Z" fill="#FFD00A"/>
<path d="M244.527 217.495C244.527 224.242 242.43 230.479 238.835 235.608C215.548 230.023 197.601 210.096 188.314 197.582C194.097 190.404 202.967 185.811 212.904 185.811C230.37 185.811 244.527 199.996 244.527 217.495Z" fill="#FFE98A"/>
<path d="M239.656 166.654C229.653 166.72 218.517 166.785 207.603 166.863C206.809 159.125 206.131 152.926 205.663 148.672C207.186 148.672 208.723 148.685 210.299 148.698C212.37 148.725 214.415 148.751 216.434 148.803C216.694 148.803 216.968 148.816 217.228 148.829C220.237 148.894 223.167 148.999 226.032 149.129C229.054 149.26 231.985 149.429 234.837 149.612C236.595 154.519 238.197 160.26 239.656 166.654Z" fill="#ED8EA3"/>
<path d="M253.826 413.419H220.77C221.474 394.367 221.356 373.058 220.718 350.965H253.878C254.308 387.321 253.826 413.419 253.826 413.419Z" fill="#AB97F7"/>
<path d="M253.578 229.135C254.659 209.417 241.909 189.165 221.825 182.262C210.937 178.516 201.221 178.529 193.915 179.626C199.619 176.742 206.079 175.124 212.904 175.124C236.256 175.124 255.193 194.097 255.193 217.495C255.193 221.527 254.633 225.442 253.578 229.135Z" fill="#AB97F7"/>
<path d="M85.7358 386.786L98.8903 431.467L105.962 407.847L124.704 402.445L123.597 360.569L85.7358 386.786Z" fill="#BA5B70"/>
<path d="M302.211 376.32L331.151 396.09L352.445 488.545H345.555L321.356 407.847L302.211 402.327V376.32Z" fill="#BA5B70"/>
<path d="M0.974133 468.383L-14.16 510.937C-14.16 510.937 -16.9993 511.225 -20.7242 509.332C-22.1829 508.615 -23.7849 507.532 -25.3999 505.979C-25.3999 505.979 -20.2423 470.915 -15.215 464.612L-34.634 437.587C-32.0162 448.196 -29.3332 461.389 -29.8021 469.558L-41.2634 516.131C-43.5035 518.597 -46.8117 518.558 -49.5337 517.919C-52.1776 517.306 -54.2485 516.131 -54.2485 516.131C-54.2485 516.131 -47.3717 469.91 -47.3457 469.858C-49.5337 463.633 -57.218 441.188 -58.1948 431.166C-57.7129 424.537 -56.124 412.388 -56.124 412.388L-50.5757 412.362L-21.8703 412.192L-21.2842 419.291L-21.2191 419.239C-21.2191 419.239 -6.73619 439.231 0.38805 455.334C2.21144 459.457 2.43285 464.116 0.974133 468.383Z" fill="#313280"/>
<path d="M26.4626 407.442C26.3975 407.025 25.9807 406.15 25.603 405.172C25.2253 404.193 23.975 403.436 22.7247 402.692C21.4744 401.948 14.6757 402.327 14.6757 402.327L14.5194 402.484L-3.88376 392.997C-9.36695 392.631 -14.6548 399.221 -14.6548 399.221C-12.0239 402.014 3.87865 405.615 10.0782 406.933L13.5296 409.856L19.9896 411.905C19.9896 411.905 20.3673 410.692 19.9896 410.13C19.6119 409.569 16.6424 408.525 16.1344 407.782C15.6265 407.051 15.7177 406.437 18.5569 406.398C21.3962 406.359 21.5395 407.586 22.3209 408.147C23.1154 408.708 23.5713 410.574 24.9779 410.809L26.3715 411.044L26.0458 408.904C26.0458 408.904 26.5408 407.86 26.4887 407.442H26.4626Z" fill="#FFB696"/>
<path d="M-57.2313 420.792H75.4854V415.494H-57.2313V420.792Z" fill="#FF8B9B"/>
<path d="M70.9271 358.129L61.2372 400.435C60.9376 401.753 59.7654 402.692 58.4239 402.692H-8.49443C-10.3308 402.692 -11.7114 400.996 -11.3207 399.182L-2.32096 356.876C-2.13862 356.002 -1.56555 355.284 -0.810147 354.918C-0.406397 354.697 0.0494461 354.579 0.518317 354.579H68.1009C69.9634 354.579 71.3439 356.315 70.9271 358.129Z" fill="#9A7BF0"/>
<path d="M56.3661 402.692H-8.49443C-10.3308 402.692 -11.7114 400.996 -11.3207 399.182L-2.32096 356.876C-2.13862 356.002 -1.56555 355.284 -0.810144 354.918C-0.497563 355.453 18.0619 388.429 56.3661 402.692Z" fill="#836CD8"/>
<path d="M39.3563 382.387L45.7512 415.494H12.9302L14.0242 412.845H27.2438L22.8416 382.387H39.3563Z" fill="#5454C9"/>
<path d="M63.6989 420.792L49.4895 538.641H6.53564L22.3991 420.792H63.6989Z" fill="#D86A7D"/>
<path d="M62.4093 431.466L18.4917 449.775L22.399 420.792H63.6987L62.4093 431.466Z" fill="#BA5B70"/>
<path d="M206.079 116.544C206.079 116.544 256.157 145.162 320.64 155.784C320.64 155.784 266.863 118.685 206.079 116.544Z" fill="#4343AA"/>
<path d="M325.251 244.833L325.185 251.332C325.185 251.332 316.251 255.808 313.672 256.93C311.093 258.053 310.533 259.801 312.344 260.428C314.154 261.054 336.699 261.237 337.037 260.428C337.949 258.327 334.667 251.41 334.667 251.41L334.107 244.833H325.251Z" fill="#313280"/>
<path d="M374.886 243.033L378.324 248.631C378.324 248.631 374.13 254.777 372.086 256.082C370.874 256.865 367.709 257.296 366.876 258.601C366.042 259.906 366.876 260.897 372.177 260.963C377.478 261.028 378.871 260.937 381.945 258.796C385.019 256.656 390.879 251.345 390.788 249.845C390.697 248.357 386.503 244.834 386.503 244.834L384.732 240.801L374.873 243.033H374.886Z" fill="#313280"/>
<path d="M348.551 149.272C348.551 149.272 347.717 176.402 353.292 195.976C358.879 215.55 373.948 246.595 373.948 246.595L389.577 242.119C389.577 242.119 378.415 201.574 370.874 190.952C370.874 190.952 368.087 145.658 365.014 139.498C361.94 133.352 348.551 149.285 348.551 149.285V149.272Z" fill="#DD7385"/>
<path d="M309.713 43.6896C315.912 37.6868 328.207 39.3571 330.109 46.5082C331.698 52.4979 331.346 58.9313 329.432 63.5638L332.531 71.6415L324.326 78.3097L320.992 72.1895C319.247 72.9986 317.462 73.4684 315.847 73.5467C311.706 73.7555 308.775 68.0398 307.069 58.07C305.376 48.0872 309.713 43.6896 309.713 43.6896Z" fill="#FF9F7F"/>
<path d="M319.585 149.103C309.27 144.066 295.295 137.841 278.285 131.617C273.544 129.881 268.569 128.145 263.373 126.436C240.333 118.88 222.294 115.357 209.791 113.739C213.776 108.871 217.866 104.239 222.06 99.9194C241.244 80.1104 262.513 66.6956 285.279 65.5342C286.569 66.539 287.819 67.596 289.03 68.6921C291.088 70.5713 293.029 72.5809 294.826 74.7079C310.221 92.677 317.397 119.363 319.585 149.103Z" fill="#D86A7D"/>
<path d="M278.872 132.53C295.712 115.579 291.779 82.0155 289.617 69.6055C309.036 87.3005 317.723 116.753 320.171 150.016C309.856 144.979 295.881 138.754 278.872 132.53Z" fill="#BA5B70"/>
<path d="M348.238 79.9406C348.238 79.9406 361.601 95.6782 363.646 122.638L336.373 133.013C336.373 133.013 319.168 104.735 317.293 94.6734C315.417 84.6123 321.083 74.1206 321.083 74.1206L331.216 67.374C331.216 67.374 344.11 73.1288 348.238 79.9406Z" fill="#9A7BF0"/>
<path d="M337.741 79.967C340.906 82.5508 341.375 87.2225 338.77 90.3674C333.378 96.8791 324.482 107.319 318.348 112.865C309.009 121.321 276.384 111.403 276.384 111.403L277.934 102.83L311.354 102.66L327.217 81.285C329.705 77.9183 334.498 77.318 337.741 79.967Z" fill="#5454C8"/>
<path d="M306.418 49.9532C306.418 49.9532 305.35 44.7726 309.7 41.0927C314.05 37.4258 320.119 37.739 323.023 38.8743C325.928 40.0096 326.553 40.5185 326.553 40.5185C326.553 40.5185 326.175 38.3653 328.442 36.7863C330.708 35.2074 335.449 38.3653 335.826 42.228C336.204 46.0906 332.518 46.1558 332.518 46.1558C332.518 46.1558 333.247 49.5748 332.518 54.7554C331.789 59.936 329.418 63.5638 329.418 63.5638C329.418 63.5638 326.475 61.9718 325.211 59.8186C325.211 59.8186 328.181 55.6428 327.165 52.798C326.149 49.9532 322.997 51.0885 322.62 53.8159L322.242 56.5301L320.406 56.0865C320.406 56.0865 319.064 52.5501 319.572 48.4917C319.572 48.4917 307.277 52.1586 306.392 49.9402L306.418 49.9532Z" fill="#313280"/>
<path d="M311.158 73.9904C314.506 75.6347 319.207 74.8778 321.083 71.9025C322.958 68.9273 322.333 58.3703 322.333 58.3703L320.38 57.4829L318.361 62.794C318.361 62.794 310.182 61.463 308.02 62.6635C308.02 62.6635 307.811 72.3462 311.158 73.9904Z" fill="#313280"/>
<path d="M331.033 65.4429L321.083 74.1207L322.88 79.3536L334.394 68.9401L331.033 65.4429Z" fill="#5454C8"/>
<path d="M277.934 102.83L275.16 102.477C275.16 102.477 269.39 100.246 267.58 99.7759C265.769 99.3062 265.248 100.363 265.574 101.303C265.574 101.303 264.597 102.334 265.157 103.73C265.157 103.73 264.232 104.696 264.988 105.922C264.988 105.922 264.662 107.175 265.352 107.945C266.056 108.715 267.371 109.237 268.114 109.341C268.843 109.446 269.26 109.341 269.26 109.341C269.26 109.341 270.797 110.255 272.19 110.255C273.584 110.255 274.626 109.759 274.626 109.759L276.579 110.255L277.921 102.83H277.934Z" fill="#FF9F7F"/>
<path d="M363.646 122.625L365.013 126.893L338.223 137.241L336.373 133L363.646 122.625Z" fill="#5454C8"/>
<path d="M365.013 126.893L338.223 137.241L316.798 182.953C315.039 186.698 314.388 190.874 314.909 194.971L321.473 246.569H336.373C336.373 246.569 338.223 234.55 337.662 216.373C337.324 205.45 335.084 196.968 333.338 191.931C335.058 189.752 360.963 156.776 365.013 147.315C369.194 137.528 365.013 126.906 365.013 126.906V126.893Z" fill="#FF8B9B"/>
<path d="M498.134 540.586H507.068L382.218 265.217H396.727V259.854H284.719V265.217H302.211L328.259 323.639V323.913H328.389L342.963 356.602V357.254H343.263L357.668 389.565V390.596H358.124L372.359 422.528V423.937H372.984L387.05 455.491V457.278H387.845L401.755 488.454V490.62H402.719L416.459 521.416V523.961H417.592L424.99 540.547H433.924L426.397 523.961H490.71L498.108 540.547L498.134 540.586ZM399.124 318.563H333.286L320.601 290.572H386.647L399.124 318.563ZM375.342 265.217L384.263 285.209H318.178L309.114 265.217H375.355H375.342ZM401.52 323.913L413.997 351.904H348.408L335.722 323.913H401.52ZM416.394 357.254L428.871 385.246H363.529L350.843 357.254H416.394ZM431.268 390.596L443.745 418.587H378.65L365.964 390.596H431.268ZM446.141 423.937L458.618 451.928H393.771L381.085 423.937H446.141ZM461.015 457.278L473.492 485.269H408.892L396.206 457.278H461.015ZM424.013 518.611L411.328 490.62H475.888L488.366 518.611H424.013Z" fill="#D86A7D"/>
<path d="M320.64 148.672V155.784C320.64 155.784 293.016 139.133 264.688 129.933C236.347 120.746 206.079 116.544 206.079 116.544L208.554 113.008L209.791 111.246C209.791 111.246 233 110.346 267.605 122.625C302.211 134.905 320.64 148.672 320.64 148.672Z" fill="#9A7BF0"/>
<path d="M294.826 74.7079C289.564 71.6022 282.049 69.449 272.216 71.9676C256.977 75.8824 234.172 91.2285 222.06 99.9194C241.244 80.1104 262.513 66.6956 285.279 65.5342C286.568 66.539 287.819 67.596 289.03 68.6921C291.088 70.5713 293.028 72.5809 294.826 74.7079Z" fill="#ED8EA3"/>
<path d="M320.64 148.672V155.784C320.64 155.784 293.016 139.133 264.688 129.933C236.347 120.747 206.079 116.545 206.079 116.545L208.554 113.008C213.672 113.008 226.735 113.883 247.861 120.929C275.798 130.247 314.87 148.268 320.64 148.672Z" fill="#826ADB"/>
<path d="M332.883 318.706H278.533V429.052H332.883V318.706Z" fill="#8CD3E8"/>
<path d="M284.719 326.366H327.295" stroke="#5454C8" stroke-width="0.5" stroke-miterlimit="10"/>
<path d="M332.883 429.052H278.533V318.706C278.533 318.706 294.331 401.609 332.883 429.052Z" fill="#71BBCC"/>
<path d="M285.279 330.646H327.295" stroke="#5454C8" stroke-width="0.5" stroke-miterlimit="10"/>
<path d="M284.719 409.622H327.295" stroke="#5454C8" stroke-width="0.5" stroke-miterlimit="10"/>
<path d="M285.279 413.902H327.295" stroke="#5454C8" stroke-width="0.5" stroke-miterlimit="10"/>
<path d="M284.719 418.6H327.295" stroke="#5454C8" stroke-width="0.5" stroke-miterlimit="10"/>
<path d="M285.279 422.88H327.295" stroke="#5454C8" stroke-width="0.5" stroke-miterlimit="10"/>
<path d="M314.727 355.31C313.424 344.687 303.005 337.784 303.005 337.784C303.005 337.784 292.586 344.687 291.283 355.31C289.981 365.932 297.144 392.422 297.144 392.422H308.866C308.866 392.422 316.029 365.932 314.727 355.31Z" stroke="white" stroke-width="0.5" stroke-linecap="round" stroke-linejoin="round"/>
<path d="M294.031 379.347C294.031 379.347 288.105 383.601 286.569 385.141C285.032 386.68 285.032 394.928 285.032 394.928L289.147 388.494L295.959 387.816" stroke="white" stroke-width="0.5" stroke-linecap="round" stroke-linejoin="round"/>
<path d="M312.005 379.347C312.005 379.347 317.931 383.601 319.468 385.141C321.004 386.68 321.004 394.928 321.004 394.928L316.889 388.494L310.077 387.816" stroke="white" stroke-width="0.5" stroke-linecap="round" stroke-linejoin="round"/>
<path d="M310.077 361.091C310.077 364.836 307.043 367.877 303.305 367.877C299.567 367.877 296.532 364.836 296.532 361.091C296.532 357.346 299.567 354.305 303.305 354.305C307.043 354.305 310.077 357.346 310.077 361.091Z" fill="#FFE98A"/>
<path d="M327.295 336.336H313.333V340.747H327.295V336.336Z" fill="#FFE98A"/>
<path d="M324.73 345.496C324.73 346.997 323.505 348.224 322.008 348.224C320.51 348.224 319.286 346.997 319.286 345.496C319.286 343.996 320.51 342.769 322.008 342.769C323.505 342.769 324.73 343.996 324.73 345.496Z" fill="white"/>
<path d="M359.752 388.495C359.752 388.495 362.721 390.935 361.745 403.945C360.768 416.955 356.587 417.921 351.56 417.086L359.752 388.495Z" fill="#FFB696"/>
<path d="M347.21 375.432L345.517 384.893L335.54 387.098L336.009 380.247C333.704 380.365 331.594 380.091 330.5 378.955C330.174 378.616 329.94 378.198 329.809 377.702C328.429 372.287 329.887 361.43 329.887 361.43C333.508 348.863 346.415 353.509 349.372 358.311C351.508 361.782 349.658 370.904 347.21 375.432Z" fill="#FFB696"/>
<path d="M336.009 380.247C333.703 380.365 331.594 380.09 330.5 378.955C331.776 378.838 335.266 378.355 336.907 376.319C338.379 374.492 336.009 380.247 336.009 380.247Z" fill="#D88E75"/>
<path d="M353.396 373.266C353.24 373.592 353.07 373.918 352.888 374.232C349.606 380.039 344.305 380.104 340.046 378.499C335.787 376.894 336.347 374.297 336.347 374.297C336.347 374.297 337.533 374.936 338.718 373.188C339.421 372.144 339.76 370.252 339.551 368.842C339.408 367.89 339.004 367.159 338.301 367.107C338.119 367.094 337.936 367.107 337.78 367.159C336.452 367.472 335.996 369.403 335.996 369.403C335.097 368.007 335.579 366.676 335.579 366.676C331.815 365.567 331.606 363.257 331.606 363.257L331.255 364.927C329.301 364.51 326.866 361.574 328.116 357.946C329.223 354.723 331.75 353.614 332.323 353.405C332.401 353.366 332.44 353.353 332.44 353.353C334.954 351.695 343.472 349.346 348.629 352.074C353.787 354.801 353.305 359.133 353.305 359.133C356.014 361.913 356.157 367.733 353.396 373.266Z" fill="#313280"/>
<path d="M360.494 360.177C360.468 360.281 360.455 360.386 360.429 360.477C359.752 363.348 357.538 364.353 355.323 363.909C355.323 363.909 355.315 363.909 355.297 363.909C354.594 363.779 353.891 363.479 353.24 363.061C352.666 362.683 352.172 362.226 351.755 361.743C351.078 360.934 350.609 360.034 350.296 359.277C350.231 359.146 350.192 359.016 350.153 358.898C349.853 358.102 349.749 357.541 349.749 357.541C349.749 357.541 349.697 357.11 349.71 356.458C349.697 356.406 349.697 356.354 349.71 356.301C349.71 356.184 349.71 356.066 349.723 355.936C349.853 354.174 350.57 351.577 353.578 351.173C358.189 350.547 361.262 356.132 360.494 360.19V360.177Z" fill="#313280"/>
<path d="M355.167 428.935V429.913C355.167 429.913 349.384 432.106 341.375 431.675C338.236 431.505 335.201 431.088 332.674 430.657C328.741 429.966 326.019 429.222 326.019 429.222L327.882 419.369L327.1 412.349C325.199 410.848 322.633 408.447 322.112 406.033C321.578 403.527 323.336 395.907 324.665 390.739L324.157 386.237C324.743 386.054 325.368 385.872 326.032 385.702C326.149 385.676 326.28 385.637 326.397 385.611C333.768 383.731 345.126 382.453 345.126 382.453C351.416 383.144 359.752 388.495 359.752 388.495C359.309 392.853 354.881 411.931 354.881 411.931L355.037 421.209L355.167 428.935Z" fill="#9A7BF0"/>
<path d="M355.167 428.934L332.674 430.657C328.741 429.965 326.019 429.222 326.019 429.222L327.882 419.369L327.1 412.349C325.199 410.848 322.633 408.447 322.112 406.033C321.578 403.527 323.336 395.906 324.665 390.739L324.157 386.237C324.743 386.054 325.368 385.871 326.032 385.702C326.149 385.676 326.28 385.636 326.397 385.61C327.087 391.665 330.07 412.623 336.048 417.307C341.466 421.562 351.117 421.457 355.037 421.209L355.167 428.934Z" fill="#7961D1"/>
<path d="M324.157 386.237L304.803 399.469L286.569 382.687L286.595 382.661C286.595 382.661 285.579 378.812 285.266 377.976C284.954 377.141 283.169 374.936 282.648 374.832C282.127 374.727 282.271 375.432 282.44 375.876C282.609 376.332 283.208 378.185 283.208 378.185L279.614 376.371C279.614 376.371 278.741 373.957 278.155 373.892C277.556 373.827 277.738 376.163 278.324 377.141C278.324 377.141 277.517 377.742 277.777 378.746C277.777 378.746 277.1 379.412 277.517 380.43C277.517 380.43 276.579 381.369 278.285 383.261C279.991 385.154 282.362 386.798 282.362 386.798C284.459 389.838 296.702 407.233 303.956 409.269C311.914 411.5 323.349 402.601 323.349 402.601C323.349 402.601 331.632 395.946 324.144 386.25L324.157 386.237Z" fill="#FFB696"/>
<path d="M346.115 554.431C345.086 554.614 324.534 554.901 324.156 553.87C323.792 552.839 323.414 551.912 327.881 550.516C328.806 550.229 329.796 549.733 330.786 549.159C333.404 547.593 335.995 545.322 337.311 544.096L333.286 522.917L332.349 517.984H344.617C344.891 519.002 345.086 521.181 345.23 523.895C345.594 531.007 345.568 541.76 345.555 544.644C345.555 544.644 345.738 545.753 345.933 547.228C346.324 550.085 346.792 554.314 346.115 554.431Z" fill="#FFB696"/>
<path d="M377.178 553.87C376.306 554.431 362.539 554.027 358.723 553.909C358.137 553.883 357.785 553.217 358.137 552.748C358.801 551.847 360.234 550.908 362.109 549.864C362.565 549.616 363.021 549.25 363.464 548.807C365.014 547.293 366.459 544.905 367.189 543.613L362.383 522.93H362.37L361.041 517.188L372.49 518.584C372.88 519.641 373.219 521.573 373.531 523.922C374.391 530.459 374.925 540.207 375.094 543.235H375.133C375.133 543.235 375.537 544.553 375.993 546.236C376.814 549.224 377.83 553.452 377.178 553.87Z" fill="#FFB696"/>
<path d="M345.23 523.895C339.004 524.235 333.286 522.917 333.286 522.917L332.349 517.984H344.617C344.891 519.002 345.086 521.181 345.23 523.895Z" fill="#D88E75"/>
<path d="M373.531 523.922C367.983 524.117 362.995 523.06 362.383 522.93H362.369L361.041 517.188L372.489 518.584C372.88 519.641 373.219 521.573 373.531 523.922Z" fill="#D88E75"/>
<path d="M375.771 517.606C372.828 518.91 369.767 519.472 367.071 519.68C362.357 520.02 358.749 519.237 358.749 519.237L344.448 457.487L347.535 517.984C344.8 519.72 340.958 520.15 337.571 520.098C337.532 520.111 337.506 520.111 337.467 520.098C335.305 520.072 333.326 519.85 331.945 519.641C330.695 519.459 329.926 519.289 329.926 519.289C329.926 519.289 317.931 469.231 319.885 451.615C321.838 433.998 326.019 429.222 326.019 429.222C332.153 427.591 337.584 426.781 342.039 426.429C350.231 425.751 355.128 426.599 355.128 426.599C364.558 436.947 364.258 452.176 364.258 452.176L375.771 517.606Z" fill="#313280"/>
<path d="M346.115 554.431C345.086 554.614 324.534 554.901 324.156 553.87C323.792 552.839 323.414 551.912 327.881 550.516C328.806 550.229 329.796 549.733 330.786 549.159C330.786 549.498 330.955 549.877 331.789 549.903C333.325 549.955 336.256 549.12 340.619 547.241C344.813 545.453 345.855 547.097 345.933 547.228C346.324 550.085 346.792 554.313 346.115 554.431Z" fill="#313280"/>
<path d="M377.178 553.87C376.306 554.431 362.539 554.027 358.723 553.909C358.137 553.883 357.785 553.217 358.137 552.748C358.801 551.847 360.234 550.908 362.109 549.864C362.565 549.616 363.021 549.25 363.464 548.807C363.802 548.95 364.402 549.029 365.417 548.833C367.918 548.376 368.817 545.205 372.62 545.205C374.521 545.205 375.485 545.714 375.993 546.236C376.814 549.224 377.83 553.452 377.178 553.87Z" fill="#313280"/>
<path d="M367.071 519.68C362.357 520.019 358.749 519.237 358.749 519.237L344.448 457.487L354.685 449.774C354.685 449.774 353.604 470.471 356.756 486.874C359.361 500.458 365.157 515.061 367.071 519.68Z" fill="#26295E"/>
<path d="M327.907 455.464C325.316 481.707 337.285 519.224 337.571 520.098H337.467L331.945 519.641C330.695 519.459 329.926 519.289 329.926 519.289C329.926 519.289 317.931 469.231 319.885 451.615C321.838 433.998 326.019 429.222 326.019 429.222C332.153 427.591 337.584 426.782 342.039 426.429C337.936 428.778 329.835 435.838 327.907 455.464Z" fill="#26295E"/>
<path d="M304.985 400.226L303.005 405.159C303.005 405.159 301.429 400.774 304.985 400.226Z" fill="#D88E75"/>
<path d="M336.92 409.622H353.696C353.696 409.622 353.943 412.492 346.676 412.492C339.408 412.492 336.92 409.622 336.92 409.622Z" fill="#7961D1"/>
<path d="M335.996 369.403C335.097 368.007 335.579 366.676 335.579 366.676C331.815 365.566 331.606 363.257 331.606 363.257L331.255 364.927C329.301 364.509 326.866 361.573 328.116 357.945C329.223 354.722 331.75 353.613 332.323 353.404C332.544 355.753 333.495 362.448 337.78 367.158C336.452 367.472 335.996 369.403 335.996 369.403Z" fill="#26295E"/>
<path d="M353.396 373.266C353.239 373.592 353.07 373.918 352.888 374.231C349.606 380.038 344.305 380.103 340.046 378.498C335.787 376.893 336.347 374.296 336.347 374.296C336.347 374.296 337.532 374.936 338.717 373.187C339.421 372.143 339.759 370.251 339.551 368.842C340.801 369.847 342.273 370.682 343.992 371.256C348.316 372.717 351.325 373.213 353.396 373.266Z" fill="#26295E"/>
<path d="M360.429 360.478C359.752 363.348 357.538 364.353 355.324 363.91C355.324 363.91 355.315 363.91 355.298 363.91C353.709 363.453 352.562 362.657 351.755 361.743C351.052 360.96 350.596 360.099 350.296 359.277C350.231 359.147 350.192 359.016 350.153 358.899C349.84 357.907 349.736 357.006 349.71 356.458C349.697 356.406 349.697 356.354 349.71 356.302C349.684 356.028 349.697 355.871 349.697 355.871C349.71 355.884 349.71 355.91 349.723 355.923C351.664 360.256 357.889 360.556 360.429 360.491V360.478Z" fill="#26295E"/>
</g>
<defs>
<clipPath id="clip0_2_5578">
<rect width="614" height="562" fill="white" transform="translate(-90)"/>
</clipPath>
</defs>
</svg>
