<svg width="190" height="172" viewBox="0 0 190 172" fill="none" xmlns="http://www.w3.org/2000/svg">
<g clip-path="url(#clip0_2008_599)">
<path d="M15.8305 139.759C15.6498 133.588 16.8915 127.298 20.2528 121.835C23.6141 116.372 29.2246 111.797 36.0843 109.868C44.8541 107.402 54.3533 109.392 63.4933 110.509C75.5571 111.983 88.6606 111.696 98.8505 105.983C106.79 101.532 112.064 94.2868 119.713 89.4794C133.578 80.766 154.035 81.8249 167.973 90.4534C181.912 99.0818 189.392 114.103 189.407 128.813C189.423 145.16 180.333 161.193 165.883 171.825H30.2943C21.6255 162.745 16.1721 151.443 15.8305 139.759Z" stroke="#D3DFFF" stroke-width="2.5" stroke-miterlimit="10"/>
<path d="M189.402 135.31C189.577 128.289 188.372 121.132 185.108 114.916C181.844 108.7 176.397 103.495 169.736 101.301C161.219 98.4949 151.995 100.759 143.121 102.03C131.406 103.707 118.681 103.381 108.787 96.8804C101.077 91.8157 95.9566 83.5731 88.5283 78.1039C75.0645 68.1893 55.1996 69.3943 41.6647 79.2115C28.1297 89.0286 20.8648 106.119 20.8511 122.857C20.8349 141.455 29.6633 159.698 43.6932 171.794H175.357C183.775 161.462 189.07 148.603 189.402 135.31Z" fill="#EDF2FF"/>
<path d="M88.8538 158.582C87.238 159.752 85.5686 160.594 83.3144 160.994L83.8455 162.6C79.9132 167.231 79.2312 170.087 79.8185 171.743L91.9383 164.608L88.8551 158.582H88.8538Z" fill="#102048"/>
<path d="M85.954 151.655L80.9619 153.878L83.3158 160.994C85.57 160.595 87.2394 159.752 88.8552 158.582L85.954 151.655Z" fill="#F9B384"/>
<path d="M57.6636 165.061V157.323L52.3386 157.212L51.2539 165C53.6028 165.427 55.7286 165.427 57.6636 165.061Z" fill="#F9B384"/>
<path d="M51.2537 165L51.0081 166.767C45.2281 168.625 43.3941 170.05 43.02 171.767H57.6646V165.061C55.7296 165.427 53.6039 165.427 51.2549 165H51.2537Z" fill="#102048"/>
<path d="M75.1931 95.4344L64.9322 107.991L64.2103 108.878L63.0483 121.311L59.2743 161.767L49.5096 161.544C48.6406 135.284 47.3764 107.984 50.2315 89.5443L51.2301 82.9912L74.5273 84.6582L75.1931 95.4344Z" fill="#1F3C88"/>
<path d="M31.5375 54.9617L30.7969 54.1201C30.3531 53.6156 29.706 53.3396 29.0352 53.3671L19.7655 53.7604C19.7131 53.7629 19.6919 53.8304 19.7331 53.8616C21.7441 55.4212 24.2439 56.2403 27.1002 56.5163L29.9566 60.4334L31.5375 54.9617Z" fill="#F9B384"/>
<path d="M64.9324 107.99L64.2105 108.876L63.0485 121.31C59.4678 113.553 60.5487 102.433 60.5487 102.433L64.9324 107.99Z" fill="#102048"/>
<path d="M75.1934 95.4343C77.7368 114.658 82.9009 135.326 89.2271 155.489L80.0745 158.655C68.8698 134.601 64.3764 121.601 60.5488 102.433L75.1934 95.4331V95.4343Z" fill="#1F3C88"/>
<path d="M64.2853 50.4901L62.7119 57.268L66.1218 60.7119L70.2673 59.879L71.2111 50.1567L64.2853 50.4901Z" fill="#F9B384"/>
<path opacity="0.6" d="M52.3945 88.5176C57.0537 89.6014 63.3773 92.2674 71.3654 89.8512L72.3641 86.185L53.1438 85.6855L52.3945 88.5188V88.5176Z" fill="#102048"/>
<path d="M62.8786 55.9346C62.8786 55.9346 65.8733 60.4348 70.5338 57.4342L74.6942 64.6841L72.7804 87.3503C65.8023 90.03 59.0697 89.1447 52.478 86.184L57.4701 59.6844L62.8786 55.9346Z" fill="white"/>
<g opacity="0.3">
<path d="M62.4624 58.7954C62.925 59.436 63.4648 59.9729 64.0832 60.3825C64.7016 60.7858 65.3873 61.073 66.1017 61.2016C66.8136 61.3427 67.553 61.324 68.2711 61.1617C68.9905 60.9956 69.6787 60.6734 70.3395 60.2389C69.8707 60.8757 69.1925 61.3777 68.4207 61.6599C67.6502 61.9496 66.7924 62.0058 65.977 61.8559C65.1642 61.6961 64.3899 61.3327 63.7703 60.7946C63.1481 60.2626 62.6768 59.5596 62.4637 58.7954H62.4624Z" fill="#1F3C88"/>
</g>
<path d="M63.0035 56.018L56.6562 55.9906C54.6264 56.0093 52.6366 56.5525 50.8786 57.5701L42.327 62.5187L31.5387 54.9629L27.1289 59.7966L38.1254 69.2291C39.8697 70.6614 42.2086 71.1359 44.3717 70.4966L51.0644 68.5186L44.3244 92.9355C49.0546 94.2678 52.6977 95.1494 57.1374 93.5186C59.5499 88.0181 63.774 74.8707 63.0035 56.0193V56.018Z" fill="#708CD5"/>
<path d="M64.0435 43.6849C64.0435 43.6849 62.2357 43.9422 60.5488 41.3099C58.9742 38.8525 61.6161 33.161 66.2067 35.5185C69.1191 32.6852 73.2871 33.9552 76.1559 38.0758C76.1559 38.0758 77.2244 37.9472 78.2717 39.2683C79.6843 41.0502 79.0846 46.8778 74.7433 49.1829L64.0435 43.6849Z" fill="#102048"/>
<path d="M63.9473 51.9424C63.9473 51.9424 64.7801 54.6608 66.7887 55.0166C69.3682 55.4749 70.6262 52.4281 70.6262 52.4281L63.9473 51.9424Z" fill="#E28B6D"/>
<path d="M74.7969 42.6348L74.2708 47.6108C74.2708 47.6108 73.3818 50.6477 70.3497 53.0576C67.3138 55.4676 63.2606 52.9015 63.0511 49.4439C63.0474 49.4077 63.0474 49.3677 63.0449 49.3303C62.9913 48.3938 62.9888 47.5197 63.0187 46.7205C63.1346 43.4103 63.8104 41.3737 63.8104 41.3737L69.1989 39.0698L74.7969 42.6336V42.6348Z" fill="#F9B384"/>
<path d="M74.1025 46.9427C72.665 46.3184 72.1076 44.8662 72.0628 42.9344C68.9895 43.6462 66.1418 43.3528 63.4713 42.2664L62.02 39.5942L68.1404 37.2754L75.1236 39.1222L76.6534 43.7586L74.1037 46.9415L74.1025 46.9427Z" fill="#102048"/>
<path d="M69.5641 46.3211C69.4631 46.6894 69.1713 46.9304 68.9133 46.8592C68.6552 46.7881 68.5268 46.4322 68.6278 46.0638C68.7287 45.6955 69.0205 45.4545 69.2786 45.5256C69.5366 45.5968 69.6651 45.9527 69.5641 46.3211Z" fill="#102048"/>
<path d="M65.3791 45.5733C65.4465 45.1972 65.2869 44.8539 65.0225 44.8063C64.7582 44.7588 64.4893 45.0251 64.4219 45.4011C64.3545 45.7772 64.5141 46.1206 64.7784 46.1681C65.0427 46.2156 65.3116 45.9493 65.3791 45.5733Z" fill="#102048"/>
<path d="M66.6154 45.2607C66.7264 45.6229 66.6815 46.0374 66.4957 46.3858C66.4047 46.5606 66.2775 46.7205 66.1242 46.8503C65.9733 46.9789 65.8187 47.0663 65.7015 47.1675C65.5881 47.2624 65.4971 47.3773 65.4734 47.4871C65.4435 47.5883 65.4834 47.7032 65.5694 47.843C65.7601 48.124 65.9609 48.4287 66.1354 48.7371L66.0132 48.8345C65.7564 48.581 65.5145 48.3313 65.2814 48.0441C65.1654 47.9005 65.0408 47.6632 65.0919 47.4085C65.1442 47.1662 65.2914 46.9914 65.4472 46.8616C65.6043 46.7367 65.7576 46.6468 65.8836 46.5531C66.007 46.462 66.1105 46.3446 66.2003 46.2147C66.3736 45.9513 66.472 45.6279 66.4596 45.2895L66.6129 45.262L66.6154 45.2607Z" fill="#E28B6D"/>
<path d="M68.1489 44.7039C68.5155 44.4392 68.9855 44.2569 69.4842 44.3218C69.7311 44.3555 69.9667 44.4641 70.155 44.6177C70.3457 44.7701 70.4854 44.9674 70.5851 45.1759L70.4791 45.2508C70.1612 44.9449 69.8271 44.7051 69.4368 44.6489C69.0466 44.589 68.6314 44.6951 68.2075 44.8188L68.1502 44.7026L68.1489 44.7039Z" fill="#102048"/>
<path d="M64.2202 44.0382C64.3698 43.9021 64.5406 43.7847 64.7351 43.7023C64.9284 43.6199 65.1491 43.5712 65.376 43.5949C65.6029 43.6186 65.8198 43.7235 65.9807 43.8721C66.144 44.0182 66.2549 44.203 66.3297 44.3928L66.22 44.4627C65.9445 44.1868 65.6677 43.9607 65.3398 43.9258C65.0107 43.8858 64.6541 44.0157 64.2888 44.1493L64.2202 44.0382Z" fill="#102048"/>
<path d="M65.2592 49.7412L67.7913 49.8136C67.7215 50.3156 67.522 50.7252 67.1729 51.0261C66.7104 51.4244 65.9923 51.377 65.6008 50.9075C65.3315 50.5866 65.2118 50.1995 65.2592 49.7412Z" fill="white"/>
<path opacity="0.4" d="M71.1169 49.7294C71.6456 49.1998 71.6457 48.3412 71.1169 47.8116C70.5881 47.282 69.7308 47.282 69.202 47.8116C68.6733 48.3412 68.6733 49.1998 69.202 49.7294C69.7308 50.259 70.5881 50.259 71.1169 49.7294Z" fill="#FC8879"/>
<path opacity="0.4" d="M64.0236 48.0316C64.0236 48.6484 63.6109 49.1716 63.0449 49.3314C62.9913 48.3949 62.9888 47.5208 63.0187 46.7217C63.5972 46.8715 64.0236 47.4022 64.0236 48.0316Z" fill="#FC8879"/>
<path d="M80.518 81.5177L77.5233 96.1011L84.4017 95.8789L87.0897 85.1826C88.3727 80.0767 87.9949 74.6849 85.9577 69.83C84.9627 67.4575 83.6948 64.9414 82.2186 62.3142C81.5092 61.0517 80.331 60.1202 78.9359 59.7381L70.5027 57.4355C66.3697 70.2845 64.4372 82.6703 66.4295 94.2131L75.9424 93.0181C76.067 86.6573 75.9099 79.5673 78.189 71.0188C78.189 71.0188 80.8521 74.6849 80.5193 81.519L80.518 81.5177Z" fill="#708CD5"/>
<path d="M72.9639 46.8003C74.1022 45.9562 74.6907 45.8825 75.435 46.543C76.3352 47.341 76.1021 50.7986 72.6099 49.5511L72.9627 46.799L72.9639 46.8003Z" fill="#F9B384"/>
<path d="M73.5459 47.9767C73.511 47.7819 73.5334 47.5684 73.6244 47.3786C73.7117 47.1875 73.8601 47.0252 74.0396 46.9128C74.2192 46.8017 74.4311 46.7367 74.6493 46.753C74.865 46.7629 75.0944 46.8878 75.1829 47.0851L75.0769 47.1613C74.946 47.0564 74.7964 47.0352 74.6468 47.0452C74.4972 47.0589 74.3463 47.1138 74.2129 47.195C73.9411 47.3598 73.7579 47.6308 73.6768 47.9779H73.5471L73.5459 47.9767Z" fill="#E28B6D"/>
<path d="M51.9857 64.7304L49.6152 73.2334L49.9359 73.3231L52.3063 64.82L51.9857 64.7304Z" fill="#102048"/>
<path d="M77.2701 75.6251L76.9409 75.5752C77.189 73.9181 78.7101 68.2154 78.7749 67.9731L79.0966 68.0593C79.0804 68.118 77.5157 73.9856 77.2701 75.6239V75.6251Z" fill="#102048"/>
<path d="M86.0889 107.491C84.8558 108.683 83.4532 109.591 81.9633 110.219C80.734 110.743 79.4398 111.071 78.1282 111.21C76.404 111.396 74.6535 111.246 72.9741 110.767C71.453 110.332 69.9906 109.629 68.6702 108.653C68.0618 108.203 67.4821 107.699 66.941 107.134C64.4125 104.503 63.1533 101.114 63.1558 97.728C63.1533 94.1717 64.5397 90.623 67.3 87.9608C67.8686 87.4151 68.4683 86.9256 69.0954 86.501C69.7462 86.0565 70.4244 85.6769 71.1251 85.361C71.6051 85.1437 72.0926 84.9602 72.5888 84.8016C73.2583 84.5893 73.9428 84.4282 74.6335 84.3208C76.3715 84.0549 78.1482 84.1285 79.8612 84.5406C80.7115 84.7404 81.5456 85.0301 82.3523 85.4022C83.3447 85.8592 84.2923 86.4449 85.1725 87.1516C85.6176 87.5062 86.0415 87.8971 86.4479 88.3191C91.6345 93.7147 91.4749 102.297 86.0889 107.494V107.491Z" fill="#FBC343"/>
<path opacity="0.4" d="M84.4881 90.2072C84.5654 90.2946 84.639 90.3808 84.71 90.4694C88.2933 94.8036 87.9865 101.239 83.8734 105.208C83.4421 105.625 82.9845 105.998 82.507 106.328C81.3226 107.148 80.0122 107.706 78.6557 107.998C76.8404 108.394 74.9441 108.314 73.1624 107.767C71.6588 107.308 70.2375 106.51 69.0157 105.382C68.972 105.344 68.9284 105.303 68.8848 105.26C65.0672 100.927 65.3016 94.3091 69.4982 90.2596C69.8847 89.8863 70.2936 89.5467 70.7163 89.2432C71.8583 88.4241 73.1213 87.8547 74.4317 87.535C76.909 86.9269 79.5546 87.2066 81.8686 88.3629C82.8075 88.8324 83.6914 89.4492 84.4881 90.2072Z" fill="#BB9132"/>
<path opacity="0.4" d="M84.7809 90.5929C84.8931 90.7103 85.0041 90.8289 85.1076 90.95C80.9284 86.9655 74.328 86.9417 70.1463 90.975C65.9647 95.0095 65.7427 101.616 69.5616 105.948C69.4444 105.839 69.3297 105.724 69.2175 105.607C65.0645 101.288 65.1792 94.4251 69.4781 90.2782C73.7757 86.1326 80.6279 86.2737 84.7822 90.5916L84.7809 90.5929Z" fill="#BB9132"/>
<path opacity="0.3" d="M74.6337 84.3193L74.4317 87.5297V87.5372C74.1574 87.6034 73.8881 87.682 73.62 87.7707C73.5727 87.7869 73.5278 87.8007 73.4792 87.8169C73.4417 87.8319 73.3994 87.8444 73.3595 87.8594C73.352 87.8594 73.3457 87.8619 73.337 87.8669C72.9779 87.9955 72.6251 88.1441 72.2773 88.3126C72.2025 88.3488 72.1239 88.3863 72.0479 88.4275C71.998 88.455 71.9444 88.4812 71.8945 88.5087C71.7923 88.5649 71.6925 88.6173 71.5915 88.6772C71.5666 88.6935 71.5417 88.7047 71.518 88.7234C71.4943 88.7347 71.4719 88.7497 71.4494 88.7647C71.3434 88.8271 71.235 88.8945 71.1277 88.9644C71.1103 88.9732 71.0966 88.9832 71.0791 88.9957C71.028 89.0281 70.9819 89.0618 70.9307 89.0931C70.8584 89.143 70.7861 89.193 70.7163 89.2454L71.1252 85.362C71.6053 85.1447 72.0927 84.9612 72.589 84.8026C73.2585 84.5903 73.943 84.4292 74.6337 84.3218V84.3193Z" fill="white"/>
<path opacity="0.15" d="M73.1611 107.767L72.9728 110.767C71.4505 110.332 69.9893 109.627 68.6689 108.651L69.0118 105.391L69.0143 105.382C69.1028 105.465 69.1938 105.545 69.2873 105.623C70.4456 106.625 71.7697 107.342 73.1611 107.766V107.767Z" fill="white"/>
<path opacity="0.15" d="M85.1723 87.149L84.7185 90.4156L84.711 90.4705C84.6387 90.3819 84.5651 90.2945 84.4891 90.2083C83.6924 89.4504 82.8084 88.8335 81.8696 88.364L81.8721 88.3515L82.3546 85.4009C83.3471 85.8566 84.2946 86.441 85.1748 87.149H85.1723Z" fill="white"/>
<path opacity="0.3" d="M82.507 106.328L81.9659 110.219C80.7329 110.742 79.4412 111.07 78.1309 111.209L78.6558 107.998C80.0122 107.705 81.3226 107.148 82.507 106.328Z" fill="white"/>
<g opacity="0.4">
<path d="M81.5593 100.858L82.7313 102.077L81.0631 103.643L79.9435 102.479C78.784 103.471 77.4363 104.2 76.3877 104.427L75.4053 101.736C76.5411 101.467 77.7679 100.811 78.6132 99.9969C79.3476 99.2889 79.4635 98.8806 79.2092 98.6171C78.2803 97.6506 74.7881 102.522 72.0328 99.6572C70.8396 98.416 70.7349 96.5068 72.2896 94.5201L70.9331 93.1091L72.4791 91.6182L73.8144 93.0067C74.6984 92.3025 75.6895 91.7493 76.652 91.4971L77.6794 94.1243C76.5535 94.4702 75.6609 94.9697 74.9926 95.6152C74.2358 96.3457 74.2059 96.7977 74.4602 97.0612C75.3467 97.9828 78.8501 93.1229 81.573 95.9549C82.7126 97.1399 82.9744 98.9218 81.5606 100.857L81.5593 100.858Z" fill="#BB9132"/>
</g>
<path d="M81.2915 100.577L82.4572 101.79L80.9187 103.273L79.8053 102.116C78.652 103.102 77.3105 103.828 76.267 104.055L75.2895 101.378C76.4191 101.109 77.6409 100.457 78.4812 99.647C79.2118 98.9415 79.3265 98.5369 79.0747 98.2735C78.1496 97.312 74.6748 102.159 71.9344 99.3086C70.7475 98.0737 70.6428 96.1732 72.19 94.1978L71.0442 93.0065L72.5828 91.5231L73.7061 92.6918C74.5863 91.9901 75.5725 91.4407 76.53 91.1909L77.5524 93.8057C76.4315 94.1503 75.5438 94.6473 74.8793 95.2891C74.1263 96.0158 74.0976 96.4654 74.3494 96.7276C75.2309 97.6441 78.7169 92.8092 81.4273 95.6263C82.5619 96.805 82.6991 98.6531 81.2927 100.579L81.2915 100.577Z" fill="#FBC343"/>
<mask id="mask0_2008_599" style="mask-type:luminance" maskUnits="userSpaceOnUse" x="71" y="91" width="12" height="14">
<path d="M81.2915 100.577L82.4572 101.79L80.9187 103.273L79.8053 102.116C78.652 103.102 77.3105 103.828 76.267 104.055L75.2895 101.378C76.4191 101.109 77.6409 100.457 78.4812 99.647C79.2118 98.9415 79.3265 98.5369 79.0747 98.2735C78.1496 97.312 74.6748 102.159 71.9344 99.3086C70.7475 98.0737 70.6428 96.1732 72.19 94.1978L71.0442 93.0065L72.5828 91.5231L73.7061 92.6918C74.5863 91.9901 75.5725 91.4407 76.53 91.1909L77.5524 93.8057C76.4315 94.1503 75.5438 94.6473 74.8793 95.2891C74.1263 96.0158 74.0976 96.4654 74.3494 96.7276C75.2309 97.6441 78.7169 92.8092 81.4273 95.6263C82.5619 96.805 82.6991 98.6531 81.2927 100.579L81.2915 100.577Z" fill="white"/>
</mask>
<g mask="url(#mask0_2008_599)">
<path opacity="0.3" d="M70.194 80.1387L66.4399 115.759L71.7437 116.293L74.0029 80.261L70.194 80.1387Z" fill="white"/>
<path opacity="0.3" d="M76.9414 118.888L83.6989 77.5815L86.9555 78.4294L81.1542 120.174L76.9414 118.888Z" fill="white"/>
</g>
<path d="M78.7528 95.2056L77.8851 97.7841C77.8851 97.7841 75.4788 100.763 75.8167 101.143C76.5236 101.935 78.3751 100.018 78.3751 100.018L76.8814 103.83C76.7992 104.082 76.95 104.351 77.2093 104.41C78.016 104.591 79.7203 104.766 81.2501 103.561C83.2387 101.995 82.7762 98.2299 82.7762 98.2299L83.6277 95.4391L78.7516 95.2056H78.7528Z" fill="#F9B384"/>
<path d="M86.758 86.501L85.9464 89.7313L85.9301 89.7975L85.8005 90.307L84.4028 95.8774L82.6063 95.9373L82.1375 95.951L77.5244 96.1009L77.598 95.7375L77.6715 95.3841L77.9047 94.2603L77.9745 93.9069L78.5031 91.3409L78.5692 91.0037L79.2786 87.5536L79.4582 86.677L79.4644 86.6608V86.6571L80.2162 83.1021C80.9119 83.2019 81.5976 83.3555 82.2659 83.5591C83.9465 84.076 86.4675 84.5168 86.7592 86.501H86.758Z" fill="#708CD5"/>
<path d="M31.096 26.4708C29.8193 20.6057 23.9969 16.9059 18.1396 18.2707C12.5777 19.5668 8.96083 25.091 9.99814 30.7151C10.4919 33.396 11.9269 35.6474 13.8893 37.2058C15.4378 38.4357 16.5275 40.1527 16.9489 42.0869L29.4228 39.3623C29.0027 37.4305 29.2757 35.4164 30.1721 33.6545C31.2606 31.5155 31.6471 28.9994 31.096 26.4708Z" fill="#FBC343"/>
<path d="M17.7433 28.8147L17.3306 28.6261C16.9067 28.4326 16.403 28.7522 16.4404 29.218C16.4467 29.2979 16.4666 29.3778 16.5028 29.4565L22.0721 41.6437L24.6716 41.0755L24.6691 27.6721C24.6691 27.6434 24.6679 27.6159 24.6641 27.5885C24.6018 27.0515 23.8961 26.8805 23.5558 27.2988L23.4012 27.4886C22.036 29.1681 19.7107 29.7137 17.7433 28.8147Z" stroke="white" stroke-width="5" stroke-miterlimit="10"/>
<path d="M27.0476 48.6075C27.1909 49.2643 26.3893 49.9973 25.2584 50.2445C24.1276 50.4917 23.0941 50.1596 22.9507 49.5015C22.8073 48.8447 23.609 48.1117 24.7398 47.8645C25.8706 47.6173 26.9042 47.9494 27.0476 48.6075Z" fill="#102048"/>
<path d="M16.9487 42.0879L29.4227 39.3633L30.556 44.5703L18.0908 47.3224L16.9487 42.0879Z" fill="#1F3C88"/>
<path d="M18.062 47.2041L30.536 44.4795L29.6969 46.4549C29.2942 47.4027 28.4588 48.0957 27.4552 48.318L22.4756 49.4168C21.4644 49.6403 20.4097 49.3556 19.6454 48.6564C18.8899 47.9646 18.062 47.2054 18.062 47.2054V47.2041Z" fill="#1F3C88"/>
<path d="M30.6869 42.0983L16.9973 45.0889C16.7916 45.1339 16.5871 45.0028 16.5435 44.7967C16.4986 44.5907 16.6295 44.3859 16.8352 44.3422L30.5248 41.3516C30.7305 41.3067 30.935 41.4378 30.9786 41.6438C31.0235 41.8498 30.8926 42.0546 30.6869 42.0983Z" fill="#708CD5"/>
<path d="M31.2894 44.8639L17.5998 47.8545C17.3941 47.8995 17.1897 47.7684 17.146 47.5624C17.1011 47.3563 17.2321 47.1515 17.4378 47.1078L31.1273 44.1172C31.333 44.0723 31.5375 44.2034 31.5811 44.4094C31.626 44.6155 31.4951 44.8202 31.2894 44.8639Z" fill="#708CD5"/>
<path d="M6.57324 12.7524L12.3333 16.1901" stroke="#FBC343" stroke-width="14.34" stroke-linecap="round" stroke-linejoin="round"/>
<path d="M24.0429 6.29688L21.0806 13.2258" stroke="#FBC343" stroke-width="14.34" stroke-linecap="round" stroke-linejoin="round"/>
<path d="M13.8271 6.04346L16.3481 13.4394" stroke="#FBC343" stroke-width="14.34" stroke-linecap="round" stroke-linejoin="round"/>
<path d="M134.436 111.503H107.341V114.865H134.436V111.503Z" fill="#FBC343"/>
<path opacity="0.4" d="M125.53 111.503H114.411V114.865H125.53V111.503Z" fill="#BB9132"/>
<path opacity="0.4" d="M112.003 111.503H109.436V114.865H112.003V111.503Z" fill="white"/>
<path opacity="0.4" d="M131.741 111.503H129.174V114.865H131.741V111.503Z" fill="white"/>
<path d="M134.436 118.219H107.341V121.58H134.436V118.219Z" fill="#FBC343"/>
<path opacity="0.4" d="M125.53 118.219H114.411V121.58H125.53V118.219Z" fill="#BB9132"/>
<path opacity="0.4" d="M112.003 118.219H109.436V121.58H112.003V118.219Z" fill="white"/>
<path opacity="0.4" d="M131.741 118.219H129.174V121.58H131.741V118.219Z" fill="white"/>
<path d="M133.478 114.858H106.383V118.22H133.478V114.858Z" fill="#FBC343"/>
<path opacity="0.4" d="M124.572 114.858H113.454V118.22H124.572V114.858Z" fill="#BB9132"/>
<path opacity="0.4" d="M111.045 114.858H108.478V118.22H111.045V114.858Z" fill="white"/>
<path opacity="0.4" d="M130.784 114.858H128.217V118.22H130.784V114.858Z" fill="white"/>
<path d="M134.436 124.936H107.341V128.297H134.436V124.936Z" fill="#FBC343"/>
<path opacity="0.4" d="M125.53 124.936H114.411V128.297H125.53V124.936Z" fill="#BB9132"/>
<path opacity="0.4" d="M112.003 124.936H109.436V128.297H112.003V124.936Z" fill="white"/>
<path opacity="0.4" d="M131.741 124.936H129.174V128.297H131.741V124.936Z" fill="white"/>
<path d="M135.805 121.574H108.71V124.936H135.805V121.574Z" fill="#FBC343"/>
<path opacity="0.4" d="M126.899 121.574H115.78V124.936H126.899V121.574Z" fill="#BB9132"/>
<path opacity="0.4" d="M113.372 121.574H110.805V124.936H113.372V121.574Z" fill="white"/>
<path opacity="0.4" d="M133.111 121.574H130.543V124.936H133.111V121.574Z" fill="white"/>
<path d="M134.436 131.651H107.341V135.012H134.436V131.651Z" fill="#FBC343"/>
<path opacity="0.4" d="M125.53 131.651H114.411V135.012H125.53V131.651Z" fill="#BB9132"/>
<path opacity="0.4" d="M112.003 131.651H109.436V135.012H112.003V131.651Z" fill="white"/>
<path opacity="0.4" d="M131.741 131.651H129.174V135.012H131.741V131.651Z" fill="white"/>
<path d="M133.204 128.29H106.109V131.651H133.204V128.29Z" fill="#FBC343"/>
<path opacity="0.4" d="M124.298 128.29H113.179V131.651H124.298V128.29Z" fill="#BB9132"/>
<path opacity="0.4" d="M110.771 128.29H108.204V131.651H110.771V128.29Z" fill="white"/>
<path opacity="0.4" d="M130.509 128.29H127.942V131.651H130.509V128.29Z" fill="white"/>
<path d="M134.436 138.366H107.341V141.728H134.436V138.366Z" fill="#FBC343"/>
<path opacity="0.4" d="M125.53 138.366H114.411V141.728H125.53V138.366Z" fill="#BB9132"/>
<path opacity="0.4" d="M112.003 138.366H109.436V141.728H112.003V138.366Z" fill="white"/>
<path opacity="0.4" d="M131.741 138.366H129.174V141.728H131.741V138.366Z" fill="white"/>
<path d="M134.436 135.006H107.341V138.368H134.436V135.006Z" fill="#FBC343"/>
<path opacity="0.4" d="M125.53 135.006H114.411V138.368H125.53V135.006Z" fill="#BB9132"/>
<path opacity="0.4" d="M112.003 135.006H109.436V138.368H112.003V135.006Z" fill="white"/>
<path opacity="0.4" d="M131.741 135.006H129.174V138.368H131.741V135.006Z" fill="white"/>
<path d="M132.44 145.088H105.345V148.449H132.44V145.088Z" fill="#FBC343"/>
<path opacity="0.4" d="M123.534 145.088H112.415V148.449H123.534V145.088Z" fill="#BB9132"/>
<path opacity="0.4" d="M110.007 145.088H107.439V148.449H110.007V145.088Z" fill="white"/>
<path opacity="0.4" d="M129.744 145.088H127.177V148.449H129.744V145.088Z" fill="white"/>
<path d="M134.436 141.728H107.341V145.089H134.436V141.728Z" fill="#FBC343"/>
<path opacity="0.4" d="M125.53 141.728H114.411V145.089H125.53V141.728Z" fill="#BB9132"/>
<path opacity="0.4" d="M112.003 141.728H109.436V145.089H112.003V141.728Z" fill="white"/>
<path opacity="0.4" d="M131.741 141.728H129.174V145.089H131.741V141.728Z" fill="white"/>
<path d="M134.436 151.811H107.341V155.172H134.436V151.811Z" fill="#FBC343"/>
<path opacity="0.4" d="M125.53 151.811H114.411V155.172H125.53V151.811Z" fill="#BB9132"/>
<path opacity="0.4" d="M112.003 151.811H109.436V155.172H112.003V151.811Z" fill="white"/>
<path opacity="0.4" d="M131.741 151.811H129.174V155.172H131.741V151.811Z" fill="white"/>
<path d="M134.436 148.45H107.341V151.811H134.436V148.45Z" fill="#FBC343"/>
<path opacity="0.4" d="M125.53 148.45H114.411V151.811H125.53V148.45Z" fill="#BB9132"/>
<path opacity="0.4" d="M112.003 148.45H109.436V151.811H112.003V148.45Z" fill="white"/>
<path opacity="0.4" d="M131.741 148.45H129.174V151.811H131.741V148.45Z" fill="white"/>
<path d="M134.436 158.533H107.341V161.894H134.436V158.533Z" fill="#FBC343"/>
<path opacity="0.4" d="M125.53 158.533H114.411V161.894H125.53V158.533Z" fill="#BB9132"/>
<path opacity="0.4" d="M112.003 158.533H109.436V161.894H112.003V158.533Z" fill="white"/>
<path opacity="0.4" d="M131.741 158.533H129.174V161.894H131.741V158.533Z" fill="white"/>
<path d="M134.436 155.172H107.341V158.534H134.436V155.172Z" fill="#FBC343"/>
<path opacity="0.4" d="M125.53 155.172H114.411V158.534H125.53V155.172Z" fill="#BB9132"/>
<path opacity="0.4" d="M112.003 155.172H109.436V158.534H112.003V155.172Z" fill="white"/>
<path opacity="0.4" d="M131.741 155.172H129.174V158.534H131.741V155.172Z" fill="white"/>
<path d="M134.436 165.254H107.341V168.616H134.436V165.254Z" fill="#FBC343"/>
<path opacity="0.4" d="M125.53 165.254H114.411V168.616H125.53V165.254Z" fill="#BB9132"/>
<path opacity="0.4" d="M112.003 165.254H109.436V168.616H112.003V165.254Z" fill="white"/>
<path opacity="0.4" d="M131.741 165.254H129.174V168.616H131.741V165.254Z" fill="white"/>
<path d="M134.436 161.894H107.341V165.255H134.436V161.894Z" fill="#FBC343"/>
<path opacity="0.4" d="M125.53 161.894H114.411V165.255H125.53V161.894Z" fill="#BB9132"/>
<path opacity="0.4" d="M112.003 161.894H109.436V165.255H112.003V161.894Z" fill="white"/>
<path opacity="0.4" d="M131.741 161.894H129.174V165.255H131.741V161.894Z" fill="white"/>
<path d="M134.436 168.616H107.341V171.977H134.436V168.616Z" fill="#FBC343"/>
<path opacity="0.4" d="M125.53 168.616H114.411V171.977H125.53V168.616Z" fill="#BB9132"/>
<path opacity="0.4" d="M112.003 168.616H109.436V171.977H112.003V168.616Z" fill="white"/>
<path opacity="0.4" d="M131.741 168.616H129.174V171.977H131.741V168.616Z" fill="white"/>
<path d="M169.865 124.936H142.771V128.297H169.865V124.936Z" fill="#FBC343"/>
<path opacity="0.4" d="M160.96 124.936H149.841V128.297H160.96V124.936Z" fill="#BB9132"/>
<path opacity="0.4" d="M147.432 124.936H144.865V128.297H147.432V124.936Z" fill="white"/>
<path opacity="0.4" d="M167.17 124.936H164.603V128.297H167.17V124.936Z" fill="white"/>
<path d="M166.536 131.651H139.441V135.012H166.536V131.651Z" fill="#FBC343"/>
<path opacity="0.4" d="M157.63 131.651H146.512V135.012H157.63V131.651Z" fill="#BB9132"/>
<path opacity="0.4" d="M144.103 131.651H141.536V135.012H144.103V131.651Z" fill="white"/>
<path opacity="0.4" d="M163.842 131.651H161.275V135.012H163.842V131.651Z" fill="white"/>
<path d="M165.304 128.29H138.209V131.651H165.304V128.29Z" fill="#FBC343"/>
<path opacity="0.4" d="M156.398 128.29H145.28V131.651H156.398V128.29Z" fill="#BB9132"/>
<path opacity="0.4" d="M142.871 128.29H140.304V131.651H142.871V128.29Z" fill="white"/>
<path opacity="0.4" d="M162.61 128.29H160.043V131.651H162.61V128.29Z" fill="white"/>
<path d="M166.536 138.366H139.441V141.728H166.536V138.366Z" fill="#FBC343"/>
<path opacity="0.4" d="M157.63 138.366H146.512V141.728H157.63V138.366Z" fill="#BB9132"/>
<path opacity="0.4" d="M144.103 138.366H141.536V141.728H144.103V138.366Z" fill="white"/>
<path opacity="0.4" d="M163.842 138.366H161.275V141.728H163.842V138.366Z" fill="white"/>
<path d="M165.169 135.006H138.074V138.368H165.169V135.006Z" fill="#FBC343"/>
<path opacity="0.4" d="M156.263 135.006H145.144V138.368H156.263V135.006Z" fill="#BB9132"/>
<path opacity="0.4" d="M142.736 135.006H140.168V138.368H142.736V135.006Z" fill="white"/>
<path opacity="0.4" d="M162.473 135.006H159.906V138.368H162.473V135.006Z" fill="white"/>
<path d="M166.536 145.088H139.441V148.449H166.536V145.088Z" fill="#FBC343"/>
<path opacity="0.4" d="M157.63 145.088H146.512V148.449H157.63V145.088Z" fill="#BB9132"/>
<path opacity="0.4" d="M144.103 145.088H141.536V148.449H144.103V145.088Z" fill="white"/>
<path opacity="0.4" d="M163.842 145.088H161.275V148.449H163.842V145.088Z" fill="white"/>
<path d="M166.536 141.728H139.441V145.089H166.536V141.728Z" fill="#FBC343"/>
<path opacity="0.4" d="M157.63 141.728H146.512V145.089H157.63V141.728Z" fill="#BB9132"/>
<path opacity="0.4" d="M144.103 141.728H141.536V145.089H144.103V141.728Z" fill="white"/>
<path opacity="0.4" d="M163.842 141.728H161.275V145.089H163.842V141.728Z" fill="white"/>
<path d="M169.199 151.811H142.104V155.172H169.199V151.811Z" fill="#FBC343"/>
<path opacity="0.4" d="M160.294 151.811H149.175V155.172H160.294V151.811Z" fill="#BB9132"/>
<path opacity="0.4" d="M146.766 151.811H144.199V155.172H146.766V151.811Z" fill="white"/>
<path opacity="0.4" d="M166.504 151.811H163.937V155.172H166.504V151.811Z" fill="white"/>
<path d="M166.536 148.45H139.441V151.811H166.536V148.45Z" fill="#FBC343"/>
<path opacity="0.4" d="M157.63 148.45H146.512V151.811H157.63V148.45Z" fill="#BB9132"/>
<path opacity="0.4" d="M144.103 148.45H141.536V151.811H144.103V148.45Z" fill="white"/>
<path opacity="0.4" d="M163.842 148.45H161.275V151.811H163.842V148.45Z" fill="white"/>
<path d="M166.536 158.533H139.441V161.894H166.536V158.533Z" fill="#FBC343"/>
<path opacity="0.4" d="M157.63 158.533H146.512V161.894H157.63V158.533Z" fill="#BB9132"/>
<path opacity="0.4" d="M144.103 158.533H141.536V161.894H144.103V158.533Z" fill="white"/>
<path opacity="0.4" d="M163.842 158.533H161.275V161.894H163.842V158.533Z" fill="white"/>
<path d="M166.536 155.172H139.441V158.534H166.536V155.172Z" fill="#FBC343"/>
<path opacity="0.4" d="M157.63 155.172H146.512V158.534H157.63V155.172Z" fill="#BB9132"/>
<path opacity="0.4" d="M144.103 155.172H141.536V158.534H144.103V155.172Z" fill="white"/>
<path opacity="0.4" d="M163.842 155.172H161.275V158.534H163.842V155.172Z" fill="white"/>
<path d="M166.536 165.254H139.441V168.616H166.536V165.254Z" fill="#FBC343"/>
<path opacity="0.4" d="M157.63 165.254H146.512V168.616H157.63V165.254Z" fill="#BB9132"/>
<path opacity="0.4" d="M144.103 165.254H141.536V168.616H144.103V165.254Z" fill="white"/>
<path opacity="0.4" d="M163.842 165.254H161.275V168.616H163.842V165.254Z" fill="white"/>
<path d="M166.536 161.894H139.441V165.255H166.536V161.894Z" fill="#FBC343"/>
<path opacity="0.4" d="M157.63 161.894H146.512V165.255H157.63V161.894Z" fill="#BB9132"/>
<path opacity="0.4" d="M144.103 161.894H141.536V165.255H144.103V161.894Z" fill="white"/>
<path opacity="0.4" d="M163.842 161.894H161.275V165.255H163.842V161.894Z" fill="white"/>
<path d="M166.536 168.616H139.441V171.977H166.536V168.616Z" fill="#FBC343"/>
<path opacity="0.4" d="M157.63 168.616H146.512V171.977H157.63V168.616Z" fill="#BB9132"/>
<path opacity="0.4" d="M144.103 168.616H141.536V171.977H144.103V168.616Z" fill="white"/>
<path opacity="0.4" d="M163.842 168.616H161.275V171.977H163.842V168.616Z" fill="white"/>
<path d="M154.075 122.301L132.402 106.016L130.388 108.704L152.061 124.99L154.075 122.301Z" fill="#FBC343"/>
<path opacity="0.4" d="M146.951 116.95L138.057 110.267L136.043 112.956L144.937 119.639L146.951 116.95Z" fill="#BB9132"/>
<path opacity="0.4" d="M136.129 108.819L134.076 107.276L132.061 109.965L134.115 111.508L136.129 108.819Z" fill="white"/>
<path opacity="0.4" d="M151.92 120.684L149.866 119.141L147.852 121.829L149.905 123.372L151.92 120.684Z" fill="white"/>
<path d="M6.65918 171.767H189.271" stroke="#102048" stroke-width="3.75" stroke-miterlimit="10"/>
<path d="M143.706 17.0667H95.3047C96.0976 13.4405 99.6759 10.7071 103.965 10.7071C105.248 10.7071 106.47 10.9519 107.569 11.3939C109.169 7.07971 112.855 4.05664 117.151 4.05664C121.446 4.05664 124.998 6.96608 126.64 11.1492C128.332 10.4012 130.3 9.97292 132.396 9.97292C138.009 9.97292 142.682 13.0272 143.706 17.0655V17.0667Z" fill="#EDF2FF"/>
<path d="M145.748 63.012H183.601C182.981 60.1762 180.182 58.0385 176.827 58.0385C175.823 58.0385 174.868 58.2295 174.008 58.5754C172.756 55.2014 169.874 52.8364 166.515 52.8364C163.156 52.8364 160.377 55.1115 159.094 58.3831C157.77 57.7975 156.232 57.4641 154.592 57.4641C150.202 57.4641 146.547 59.8528 145.748 63.0107V63.012Z" fill="#EDF2FF"/>
</g>
<defs>
<clipPath id="clip0_2008_599">
<rect width="189.849" height="172" fill="white"/>
</clipPath>
</defs>
</svg>
